<svg xmlns="http://www.w3.org/2000/svg" viewBox="0 0 432.949 350.562"><path fill="#a5a5a7" d="M60.843 338.353h28.618v12.209H60.843zM95.757 338.353h28.618v12.209H95.757z"/><path fill="#e0e0e1" d="M0 0h432.949v343.416H0z"/><path fill="none" stroke="#a3a3a4" stroke-width="1.143" stroke-miterlimit="10" d="M44.766 343.416v-41.699h282.415v41.699"/><path fill="#a3a3a4" d="M327.778 0h67.301v343.416h-67.301z"/><path fill="#09070a" d="M327.778 0h67.301v41.699h-67.301zM327.778 301.717h67.301v41.699h-67.301z"/><path d="M330.069 343.273a2.148 2.148 0 0 1-2.146-2.146v-16.271c0-1.184.963-2.146 2.146-2.146h62.722c1.184 0 2.146.963 2.146 2.146v16.271a2.148 2.148 0 0 1-2.146 2.146h-62.722z" fill="#202020"/><path d="M392.791 322.853c1.104 0 2.003.899 2.003 2.004v16.27a2.005 2.005 0 0 1-2.003 2.004h-62.723a2.006 2.006 0 0 1-2.004-2.004v-16.27c0-1.105.899-2.004 2.004-2.004h62.723m0-.286h-62.723a2.29 2.29 0 0 0-2.29 2.29v16.27a2.29 2.29 0 0 0 2.29 2.29h62.723a2.29 2.29 0 0 0 2.289-2.29v-16.27a2.289 2.289 0 0 0-2.289-2.29z" fill="#070308"/><path d="M330.069 322.423a2.148 2.148 0 0 1-2.146-2.146v-16.271c0-1.184.963-2.146 2.146-2.146h62.722c1.184 0 2.146.962 2.146 2.146v16.271a2.148 2.148 0 0 1-2.146 2.146h-62.722z" fill="#202020"/><path d="M392.791 302.003c1.104 0 2.003.899 2.003 2.003v16.271a2.005 2.005 0 0 1-2.003 2.003h-62.723a2.006 2.006 0 0 1-2.004-2.003v-16.271c0-1.104.899-2.003 2.004-2.003h62.723m0-.286h-62.723a2.289 2.289 0 0 0-2.29 2.289v16.271a2.29 2.29 0 0 0 2.29 2.289h62.723a2.29 2.29 0 0 0 2.289-2.289v-16.271a2.289 2.289 0 0 0-2.289-2.289z" fill="#070308"/><path d="M330.069 41.556a2.148 2.148 0 0 1-2.146-2.146V23.139c0-1.183.963-2.146 2.146-2.146h62.722c1.184 0 2.146.963 2.146 2.146V39.41a2.148 2.148 0 0 1-2.146 2.146h-62.722z" fill="#202020"/><path d="M392.791 21.137c1.104 0 2.003.899 2.003 2.003v16.27a2.005 2.005 0 0 1-2.003 2.003h-62.723a2.006 2.006 0 0 1-2.004-2.003V23.14c0-1.104.899-2.003 2.004-2.003h62.723m0-.287h-62.723a2.29 2.29 0 0 0-2.29 2.289V39.41a2.29 2.29 0 0 0 2.29 2.289h62.723a2.29 2.29 0 0 0 2.289-2.289V23.14a2.29 2.29 0 0 0-2.289-2.29z" fill="#070308"/><g><path d="M330.069 20.707a2.148 2.148 0 0 1-2.146-2.147V2.289c0-1.183.963-2.146 2.146-2.146h62.722c1.184 0 2.146.963 2.146 2.146V18.56a2.148 2.148 0 0 1-2.146 2.147h-62.722z" fill="#202020"/><path d="M392.791.286c1.104 0 2.003.899 2.003 2.003V18.56a2.005 2.005 0 0 1-2.003 2.004h-62.723a2.006 2.006 0 0 1-2.004-2.004V2.289c0-1.104.899-2.003 2.004-2.003h62.723m0-.286h-62.723a2.29 2.29 0 0 0-2.29 2.289V18.56a2.29 2.29 0 0 0 2.29 2.291h62.723a2.29 2.29 0 0 0 2.289-2.291V2.289A2.29 2.29 0 0 0 392.791 0z" fill="#070308"/></g><g><g fill="#e0e0e1"><path d="M327.778 296.795h67.301v4.922h-67.301zM327.778 287.685h67.301v4.92h-67.301zM327.778 278.573h67.301v4.921h-67.301zM327.778 269.464h67.301v4.921h-67.301zM327.778 260.354h67.301v4.921h-67.301zM327.778 251.243h67.301v4.921h-67.301zM327.778 242.131h67.301v4.921h-67.301zM327.778 233.021h67.301v4.921h-67.301zM327.778 223.911h67.301v4.921h-67.301zM327.778 214.801h67.301v4.921h-67.301zM327.778 205.69h67.301v4.921h-67.301zM327.778 196.579h67.301v4.921h-67.301zM327.778 187.467h67.301v4.924h-67.301zM327.778 178.359h67.301v4.921h-67.301zM327.778 169.247h67.301v4.921h-67.301zM327.778 160.137h67.301v4.921h-67.301zM327.778 151.026h67.301v4.922h-67.301zM327.778 141.916h67.301v4.921h-67.301zM327.778 132.806h67.301v4.921h-67.301zM327.778 123.694h67.301v4.921h-67.301zM327.778 114.584h67.301v4.921h-67.301zM327.778 105.473h67.301v4.921h-67.301zM327.778 96.363h67.301v4.921h-67.301zM327.778 87.253h67.301v4.921h-67.301zM327.778 78.142h67.301v4.921h-67.301zM327.778 69.031h67.301v4.922h-67.301zM327.778 59.921h67.301v4.921h-67.301zM327.778 50.81h67.301v4.921h-67.301zM327.778 41.699h67.301v4.921h-67.301z"/></g></g></svg>