<svg xmlns="http://www.w3.org/2000/svg" viewBox="0 0 126.982 308.48"><path fill="#1a1919" d="M7.403 8.04h98.433v293.273H7.403z"/><path d="M109.336 103.815v77.262a4.894 4.894 0 0 1-4.894 4.894h-5.339a4.894 4.894 0 0 1-4.894-4.894v-77.262a4.894 4.894 0 0 1 4.894-4.894h5.339a4.894 4.894 0 0 1 4.894 4.894zM17.085 103.815v77.262a4.894 4.894 0 0 1-4.894 4.894h-5.34a4.894 4.894 0 0 1-4.894-4.894v-77.262a4.894 4.894 0 0 1 4.894-4.894h5.34a4.894 4.894 0 0 1 4.894 4.894z" fill="#818080"/><path d="M126.982 4.108A4.105 4.105 0 0 0 122.873 0H4.108A4.105 4.105 0 0 0 0 4.108v300.363c0 2.271 1.837 4.009 4.108 4.009h118.765c2.272 0 4.109-1.737 4.109-4.009V4.108zm-21.146 3.91v293.351H7.42V8.018h98.416z" fill="#dddcdc"/><path d="M80.625 44.128c0-1.354-1.117-2.376-2.471-2.376h-17.01v-17.01a2.486 2.486 0 0 0-2.471-2.472H44.989a2.485 2.485 0 0 0-2.471 2.472v17.01h-17.01c-1.354 0-2.376 1.021-2.376 2.376v13.778c0 1.354 1.021 2.376 2.376 2.376h17.01v17.011a2.485 2.485 0 0 0 2.471 2.471h13.684a2.485 2.485 0 0 0 2.471-2.471V60.282h17.01c1.354 0 2.471-1.021 2.471-2.376V44.128z" fill="#070308"/><path d="M80.625 44.128h.416a2.73 2.73 0 0 0-.858-1.998 2.94 2.94 0 0 0-2.029-.794H61.561V24.742a2.902 2.902 0 0 0-2.888-2.888H44.989a2.9 2.9 0 0 0-2.887 2.888v16.593H25.509a2.784 2.784 0 0 0-1.99.802 2.785 2.785 0 0 0-.802 1.99v13.778a2.784 2.784 0 0 0 .802 1.99 2.785 2.785 0 0 0 1.99.802h16.593v16.594a2.9 2.9 0 0 0 2.887 2.887h13.684a2.901 2.901 0 0 0 2.888-2.887V60.699h16.593a2.94 2.94 0 0 0 2.029-.794 2.73 2.73 0 0 0 .858-1.998V44.128h-.832v13.778c-.001 1.112-.909 1.954-2.054 1.96H60.728v17.427c0 .561-.231 1.073-.606 1.448a2.046 2.046 0 0 1-1.449.606H44.989a2.044 2.044 0 0 1-1.448-.606 2.046 2.046 0 0 1-.606-1.448V59.866H25.509c-1.137-.01-1.95-.822-1.96-1.96V44.128c.01-1.137.822-1.95 1.96-1.96h17.426V24.742c0-.561.231-1.074.606-1.449a2.046 2.046 0 0 1 1.448-.606h13.684c.561 0 1.073.231 1.449.606.375.375.606.888.606 1.449v17.426h17.426c1.145.006 2.054.847 2.054 1.96h.417z" fill="#fff"/><path d="M78.483 44.603a.748.748 0 0 0-.759-.76H59.159V25.278a.748.748 0 0 0-.759-.76H45.32c-.428 0-.793.331-.793.76v18.564H25.996c-.428 0-.794.331-.794.76v13.113c0 .428.366.759.794.759h18.531V77.04c0 .428.365.759.793.759h13.079a.747.747 0 0 0 .759-.759V58.475h18.565a.748.748 0 0 0 .759-.759V44.603z" fill="#1a1919"/><path d="M89.868 103.815v77.262a4.894 4.894 0 0 1-4.894 4.894h-5.34a4.894 4.894 0 0 1-4.894-4.894v-77.262a4.894 4.894 0 0 1 4.894-4.894h5.34a4.895 4.895 0 0 1 4.894 4.894z" fill="#818080"/><path d="M54.56 201.736v30.124a2.404 2.404 0 0 1-2.405 2.404H22.03a2.404 2.404 0 0 1-2.405-2.404v-30.124a2.406 2.406 0 0 1 2.405-2.406h30.124a2.406 2.406 0 0 1 2.406 2.406z" fill="#ddd"/><path d="M36.945 231.113c-7.907 0-14.317-6.41-14.317-14.317s6.41-14.317 14.317-14.317 14.317 6.41 14.317 14.317-6.409 14.317-14.317 14.317z" fill="#b52220"/><path d="M54.56 241.407v30.124a2.405 2.405 0 0 1-2.405 2.405H22.03a2.405 2.405 0 0 1-2.405-2.405v-30.124a2.405 2.405 0 0 1 2.405-2.405h30.124a2.406 2.406 0 0 1 2.406 2.405z" fill="#ddd"/><path d="M36.945 270.799c-7.907 0-14.317-6.41-14.317-14.317 0-7.908 6.41-14.317 14.317-14.317s14.317 6.409 14.317 14.317c0 7.907-6.409 14.317-14.317 14.317z" fill="#b52220"/><path d="M70.389 103.815v77.262a4.894 4.894 0 0 1-4.894 4.894h-5.34a4.894 4.894 0 0 1-4.894-4.894v-77.262a4.894 4.894 0 0 1 4.894-4.894h5.34a4.895 4.895 0 0 1 4.894 4.894z" fill="#818080"/><path d="M51.163 104.376v76.156a5.454 5.454 0 0 1-5.454 5.454H27.895a5.454 5.454 0 0 1-5.455-5.454v-76.156a5.454 5.454 0 0 1 5.455-5.454h17.814a5.453 5.453 0 0 1 5.454 5.454z" fill="#ddd"/><path d="M48.425 106.956h-.368v71.01a4.083 4.083 0 0 1-1.201 2.899 4.084 4.084 0 0 1-2.9 1.201H29.363a4.081 4.081 0 0 1-2.899-1.201 4.086 4.086 0 0 1-1.2-2.899v-71.01c0-1.133.458-2.156 1.2-2.899a4.081 4.081 0 0 1 2.899-1.201h14.593c1.134 0 2.157.458 2.9 1.201a4.083 4.083 0 0 1 1.201 2.899h.736a4.836 4.836 0 0 0-4.836-4.835H29.363a4.835 4.835 0 0 0-4.834 4.835v71.01a4.834 4.834 0 0 0 4.834 4.835h14.593a4.836 4.836 0 0 0 4.836-4.835v-71.01h-.367z" fill="#818080"/><path d="M41.104 113.756v14.817a4.818 4.818 0 0 1-9.637 0v-14.817a4.818 4.818 0 1 1 9.637 0zM41.104 156.095v14.816a4.818 4.818 0 0 1-9.637 0v-14.816a4.818 4.818 0 1 1 9.637 0z" fill="#070308"/><path d="M88.244 216.53h-7.926v-2.524l5.37-3.227c.353-.179.007-.179.007-.179h-5.376v-2.583h7.926v2.583s-5.076 3.078-5.315 3.246c-.239.159 0 .159 0 .159h5.315v2.525M86.801 217.816h1.444v2.365h-1.444zM87.077 232.752h-.86v1.059l-.522.04v-1.099h-5.377v-2.465h5.377v-1.108l.522.03v1.078h.86v2.465M85.43 228.069c-.473.594-1.386.802-1.386.802h-3.726v-2.484h3.663s.865-.188.859-1.157c-.006-.96-.796-1.148-.796-1.148h-3.726v-2.425h5.376v2.425c-.461.247.092.832.178 1.336.296.92.001 1.919-.442 2.651M80.319 217.816h5.376v2.365h-5.376zM81.209 238.463s-.738-.218-.738-1 .83-.96.83-.96l1.629.03v4.503c1.505-.01 2.088-.644 2.458-1.158.829-1.514.816-3.662-.362-5.137-.442-.515-1.254-.881-2.028-.842-.701 0-1.4.287-1.88.772-.811.96-1.179 2.396-.885 3.801.295.921.737 2.099 1.77 2.355v-2.355l-.794-.009zm3.406-1.881s.711.158.711.96c0 .792-.781.891-.781.891l-.725.02v-1.87h.795M88.245 254.497h-2.758c.443-.812.718-2.168.165-3.019-.516-1.069-1.733-1.436-2.802-1.475-.811.039-1.732.515-2.212 1.217-.539.881-.616 2.059-.204 3.049l.13.267a1.01 1.01 0 0 0-.148.287c-.244.703-.098 1.95-.098 1.95h7.927v-2.276zm-6.967 0s-.524-.248-.53-.95c.006-.555.399-.931.399-.931h3.534s.498.158.491.871c-.005.713-.491 1.01-.491 1.01h-3.403M85.41 248.459c-.473.584-1.387.802-1.387.802h-3.726v-2.494h3.663s.865-.188.859-1.148c-.007-.97-.796-1.148-.796-1.148h-3.726v-2.435h5.376v2.435c-.461.237.092.822.177 1.326.297.92.001 1.92-.44 2.662M86.032 261.415c0-1.999-1.313-3.612-2.934-3.612-1.619 0-2.933 1.613-2.933 3.612.001 1.989 1.313 3.604 2.933 3.604 1.621 0 2.934-1.614 2.934-3.604zm-4.679.97s-.523-.247-.529-.959c.006-.545.399-.921.399-.921h3.533s.498.148.491.861c-.006.712-.491 1.019-.491 1.019h-3.403M85.564 266.07c0 .523.208 1.019.579 1.394.373.373.867.584 1.394.584.525 0 1.02-.211 1.393-.584a1.976 1.976 0 0 0-1.393-3.373c-.526 0-1.021.211-1.394.585a1.969 1.969 0 0 0-.579 1.394zm1.972-1.589c.422 0 .819.166 1.118.465a1.599 1.599 0 0 1 0 2.248 1.618 1.618 0 0 1-1.118.449 1.578 1.578 0 0 1-1.118-2.697 1.57 1.57 0 0 1 1.118-.465" fill="#c23637"/><path d="M88.34 265.649v.675l-.039.224c-.053.091-.15.15-.292.15-.132 0-.225-.044-.276-.119a.52.52 0 0 1-.077-.301v-.629h.684zm-1.767 0h.858v.629a.57.57 0 0 1-.036.24c-.045.091-.133.136-.264.149l-.333.016-.159.015-.067.016v.329h.046l.121-.075.171-.029.269-.016c.115 0 .2-.015.251-.06l.126-.18.183.21c.078.06.177.074.295.074.231 0 .388-.09.474-.284a.883.883 0 0 0 .066-.374v-.929h-2.001v.269" fill="#c23637"/><path d="M59.947 103.76v3.944c0 1.127.517 1.69 1.55 1.69s1.549-.563 1.549-1.69v-2.817h.845v4.508h1.127v-3.944c0-1.128-.524-1.69-1.572-1.69-1.018 0-1.527.563-1.527 1.69v2.816h-.845v-4.507h-1.127zM59.947 115.593v-3.944c0-1.127.563-1.69 1.691-1.69h3.38v5.635h-1.127v-4.508h-.845v4.508h-1.127v-4.508h-.282c-.375 0-.563.188-.563.563v3.944h-1.127zM65.025 116.149h-3.381c-1.127 0-1.69.563-1.69 1.689v3.944h1.127v-3.944c0-.375.188-.563.563-.563h3.381v-1.126zM59.947 127.982v-3.944c0-1.127.563-1.69 1.691-1.69h3.38v5.635h-1.127v-4.508h-.845v4.508h-1.127v-4.508h-.282c-.375 0-.563.188-.563.563v3.944h-1.127zM59.947 134.183v-3.944c0-1.127.563-1.69 1.691-1.69h1.69c1.126 0 1.69.563 1.69 1.69v3.944h-1.127v-3.944c0-.376-.188-.563-.563-.563h-1.69c-.375 0-.563.188-.563.563v3.944h-1.128zM65.025 134.749v5.635h-1.127v-2.254h-3.944v-1.127h3.944v-2.254zM59.947 150.541v3.944c0 1.127.517 1.689 1.55 1.689s1.549-.563 1.549-1.689v-2.817h.845v4.507h1.127v-3.943c0-1.127-.524-1.69-1.572-1.69-1.018 0-1.527.563-1.527 1.69v2.817h-.845v-4.508h-1.127zM65.025 156.73v5.635h-1.127v-2.254h-3.944v-1.127h3.944v-2.254zM62.486 167.441h.845c.376 0 .563-.188.563-.563v-2.254c0-.376-.188-.563-.563-.563h-.845v3.38zm-1.127-3.38H59.95v-1.127h3.381c1.127 0 1.69.564 1.69 1.69v2.254c0 1.127-.563 1.69-1.69 1.69H59.95v-1.127h1.409v-3.38zM63.052 170.253v3.381h.845v-3.381h-.845zm-1.126 0h-1.972v-1.127h5.071v3.944c0 1.127-.515 1.69-1.544 1.69-.488 0-.847-.081-1.076-.242-.267.161-.615.242-1.043.242h-1.408v-1.127h1.408c.375 0 .564-.188.564-.563v-2.817zM65.025 175.33v5.635h-1.127v-2.254h-3.944v-1.127h3.944v-2.254zM14.523 230.385v4.044h1.011v-4.044h-1.011zm-2.359 0v4.044h1.012v-4.044h-1.012zm-1.348-1.348h6.066v4.718c0 1.348-.611 2.021-1.834 2.021-.499 0-.898-.107-1.199-.323-.297.216-.694.323-1.193.323-1.227 0-1.84-.674-1.84-2.021v-4.718zM13.596 274.114h1.011c.45 0 .674-.225.674-.674v-2.696c0-.449-.224-.674-.674-.674h-1.011v4.044zm-1.348-4.044h-1.686v-1.348h4.044c1.348 0 2.021.674 2.021 2.021v2.696c0 1.348-.674 2.021-2.021 2.021h-4.044v-1.348h1.686v-4.042z" fill="#c23435"/><path fill="#070308" d="M57.27 31.849l.089-.09-2.761-2.76-2.849-2.85-2.851 2.85-2.975 2.976h1.835v5.52h7.982v-5.52h1.834l-.215-.216-.089.09v-.126h-1.782v5.52H48.01v-5.52h-1.478l2.544-2.546 2.673-2.672 2.671 2.672 2.761 2.761.089-.089v-.126zM57.27 70.409l-.089-.089-2.761 2.761-2.671 2.671-2.673-2.671-2.544-2.546h1.478v-5.521h7.478v5.521h1.782v-.126l-.089-.089.089.089v-.126h-1.53v-5.521h-7.982v5.521h-1.835l2.975 2.976 2.851 2.85 2.849-2.85 2.976-2.976h-.304zM71.217 56.595l.089.089 2.761-2.761 2.849-2.85-2.849-2.85-2.976-2.976v1.835h-5.522v7.982h5.522v1.835l.215-.215-.089-.089h.126v-1.783h-5.522v-7.478h5.522v-1.478l2.545 2.546 2.672 2.671-2.672 2.672-2.76 2.761.089.089h.126zM32.07 56.595l.089-.089-2.76-2.761-2.672-2.672 2.672-2.671 2.545-2.546v1.478h5.522v7.478h-5.522v1.783h.126l.089-.089-.089.089h.126v-1.531h5.522v-7.982h-5.522v-1.835l-2.976 2.976-2.849 2.85 2.849 2.85 2.976 2.976v-.304zM51.84 57.789v-.186h-.005a6.44 6.44 0 0 1-6.439-6.436v-.003a6.44 6.44 0 0 1 6.436-6.441h.015l-.001-.023v.023h.001l-.001-.023v.023a6.44 6.44 0 0 1 6.439 6.436v.005a6.44 6.44 0 0 1-6.436 6.44h-.009v.371h.009a6.812 6.812 0 0 0 6.807-6.811v-.008l-.186.004h.186a6.811 6.811 0 0 0-6.81-6.807h-.012l.006.186v-.186h-.009a6.812 6.812 0 0 0-6.807 6.812v.004a6.812 6.812 0 0 0 6.811 6.807h.005v-.187z"/><path d="M40.165 115.026v12.294c0 2.662-1.738 4.819-3.883 4.819-2.144 0-3.882-2.157-3.882-4.819v-12.294c0-2.661 1.738-4.819 3.882-4.819 2.145 0 3.883 2.158 3.883 4.819zM40.165 157.353v12.295c0 2.661-1.738 4.818-3.883 4.818-2.144 0-3.882-2.157-3.882-4.818v-12.295c0-2.66 1.738-4.818 3.882-4.818 2.145-.001 3.883 2.157 3.883 4.818z" fill="#1a1919"/></svg>