<svg xmlns="http://www.w3.org/2000/svg" viewBox="0 0 230.507 259.801"><path d="M222.088 0v3.286h-12.73V0H86.166v3.286H35.361V0H21.034v3.286H8.394V0H0v212.028h11.976V259.8h205.185v-47.157h13.346V0h-8.419z" fill="#bcbcbc"/><path d="M8.394 3.285h12.638v-1.3H8.394v1.3zm200.964 0h12.73v-1.3h-12.73v1.3zM35.361 259.8h50.805V3.285H35.361V259.8z" fill="#a3a3a4"/><path d="M86.166 3.285H35.362v28.837c0 1.21.98 2.19 2.19 2.19h46.424a2.19 2.19 0 0 0 2.191-2.19V3.285z" fill="#858484"/><path d="M35.772 259.8h49.983v-24.73c0-1.21-.964-2.191-2.153-2.191H37.926c-1.19 0-2.154.981-2.154 2.19v24.73zm49.23-31.484H36.41v-4.654h48.592v4.654zm0-9.763H36.41v-4.655h48.592v4.655zm0-9.764H36.41v-4.655h48.592v4.655zm0-9.764H36.41v-4.655h48.592v4.655zm0-9.766H36.41v-4.654h48.592v4.654zm0-9.763H36.41v-4.654h48.592v4.654zm0-9.765H36.41v-4.654h48.592v4.654zm0-9.764H36.41v-4.654h48.592v4.654zm0-9.763H36.41v-4.654h48.592v4.654zm0-9.764H36.41v-4.656h48.592v4.656zm0-9.765H36.41v-4.655h48.592v4.655zm0-9.766H36.41v-4.654h48.592v4.654zm0-9.763H36.41v-4.654h48.592v4.654zm0-9.764H36.41v-4.654h48.592v4.654zm0-9.763H36.41v-4.654h48.592v4.654zm0-9.765H36.41v-4.656h48.592v4.656zm0-9.764H36.41v-4.655h48.592v4.655zm0-9.765H36.41V57.67h48.592v4.655zm0-9.766H36.41v-4.654h48.592v4.654zm0-9.763H36.41v-4.654h48.592v4.654z" fill="#bcbcbc"/><path d="M90.888 0V174.98c0 1.21.981 2.19 2.191 2.19h106.766a2.19 2.19 0 0 0 2.192-2.19V0H90.887z" fill="#1a1919"/><path d="M103.892 192.5h20.853l-10.427 18.068-10.426-18.068zM85.002 33.032H36.41v-4.654h48.592v4.654zm0-9.763H36.41v-4.654h48.592v4.654zm0-9.765H36.41V8.85h48.592v4.654z" fill="#a3a3a4"/><path d="M177.952 148.064c6.932 0 12.552 3.915 12.552 8.742 0 4.828-5.62 8.743-12.552 8.743s-12.552-3.915-12.552-8.743c0-4.827 5.62-8.742 12.552-8.742z" fill="#fff"/><path d="M175.251 161.97h.388v.02c0 .121.038.214.113.277.075.064.186.095.33.095a.42.42 0 0 0 .258-.069.23.23 0 0 0 .091-.196c0-.071-.02-.123-.06-.156-.04-.033-.12-.059-.24-.076l-.269-.038c-.197-.029-.342-.092-.435-.19-.093-.097-.139-.235-.139-.413 0-.211.067-.382.201-.515a.725.725 0 0 1 .531-.199c.237 0 .422.063.555.188.134.125.201.296.201.513v.017h-.379c-.009-.108-.044-.188-.106-.242a.396.396 0 0 0-.265-.08.415.415 0 0 0-.248.065.212.212 0 0 0-.088.182c0 .063.017.109.052.138.034.029.119.054.254.076l.281.042c.195.03.338.096.43.198.092.102.138.246.138.431 0 .239-.069.42-.206.545-.137.124-.338.186-.602.186-.252 0-.446-.065-.581-.196-.136-.131-.203-.317-.203-.56l-.002-.043zm3.11.223a.822.822 0 0 1-.242.428.614.614 0 0 1-.42.151.599.599 0 0 1-.497-.232c-.122-.154-.183-.363-.183-.628 0-.264.061-.473.183-.626a.603.603 0 0 1 .498-.23c.218 0 .386.08.505.238.118.159.177.386.177.679v.068h-.969a.477.477 0 0 0 .081.28c.052.07.12.104.205.104.066 0 .124-.02.172-.061a.34.34 0 0 0 .104-.173l.386.002zm-.938-.485l.567.001a.386.386 0 0 0-.085-.235.253.253 0 0 0-.198-.085.254.254 0 0 0-.198.086.376.376 0 0 0-.086.233zm2.444.749c0 .063.004.111.013.144a.155.155 0 0 0 .042.078v.036h-.387l-.017-.175a.605.605 0 0 1-.206.176.592.592 0 0 1-.266.057.478.478 0 0 1-.368-.144.55.55 0 0 1-.135-.389c0-.152.04-.265.121-.34.081-.075.219-.124.416-.147l.109-.01c.226-.022.339-.084.339-.185 0-.061-.022-.106-.065-.136a.345.345 0 0 0-.195-.045c-.087 0-.152.021-.193.064-.041.043-.062.11-.064.201l-.368.001v-.005c0-.188.055-.332.165-.431.11-.099.269-.149.478-.149.103 0 .193.014.272.043a.52.52 0 0 1 .199.127c.04.044.069.098.086.165.017.066.025.166.025.301l-.001.763zm-.342-.515c-.044.034-.127.059-.251.077a.197.197 0 0 1-.034.005c-.132.019-.215.043-.25.071-.035.028-.052.072-.052.131 0 .062.017.112.052.149a.182.182 0 0 0 .138.056c.119 0 .215-.04.289-.121a.446.446 0 0 0 .111-.314l-.001-.035c0-.007 0-.014-.002-.019zm.654.772v-2.146h.348v2.146h-.348z" fill="#a18051"/><path d="M191.999 156.813l1.501 1.608-2.145 1.288.603 2.489-2.308.064-.159 2.711-2.572-.709-.434 2.559-2.381-.946-1.241 2.256-1.859-1.609-1.621 2.286-1.785-1.94-1.951 1.812-1.274-2.134-2.301 1.354-.795-2.389-2.664 1.05-.392-2.355-2.383.149.357-2.398-2.437-.01.57-2.619-1.89-1.062 1.505-1.709-1.35-2.376 2.197-.695-.578-2.542 2.409-.032.279-2.521 2.179.723.721-2.457 2.201 1.191.911-2.174 1.907 1.325 1.34-2.066 1.801 1.8 1.591-1.646 1.395 2.074 2.179-1.401.864 2.29 2.19-1.037.564 2.389 2.596-.462-.079 2.338 2.624.283-.743 2.259 2.285.979-1.427 2.012zm-1.496-.005c0-4.827-5.62-8.742-12.552-8.742s-12.552 3.915-12.552 8.742c0 4.828 5.62 8.743 12.552 8.743s12.552-3.915 12.552-8.743z" fill="#a18051"/><path d="M173.795 152.307c0-.58.329-.724.563-.724.234 0 .563.144.563.724s-.329.725-.563.725c-.233 0-.563-.144-.563-.725zm-.431 0c0 .972.721 1.09.995 1.09s.995-.118.995-1.09c0-.972-.721-1.09-.995-1.09-.275 0-.995.119-.995 1.09zm2.715 1.036h-.404v-1.244h-.222v-.289h.222v-.125c0-.319.173-.44.45-.44.118 0 .173.003.208.005v.326h-.112c-.138 0-.141.044-.141.172v.061h.263v.289h-.263l-.001 1.245zm.903 0h-.404v-1.244h-.222v-.289h.222v-.125c0-.319.173-.44.45-.44.118 0 .173.003.207.005v.326h-.112c-.138 0-.141.044-.141.172v.061h.262v.289h-.262v1.245zm.851-1.534v1.534h-.404v-1.534h.404zm0-.184h-.404v-.374h.404v.374zm1.651 1.158a.657.657 0 0 1-.702.599c-.578 0-.711-.441-.711-.763 0-.495.217-.85.737-.85.243 0 .641.11.679.588h-.41c-.018-.101-.081-.259-.269-.247-.254 0-.321.253-.321.443 0 .166.005.497.312.497.205 0 .275-.196.275-.267h.41zm.64-.974v1.534h-.404v-1.534h.404zm0-.184h-.404v-.374h.404v.374zm1.176 1.168c0 .185-.181.3-.36.3-.078 0-.187-.043-.187-.184 0-.167.124-.204.274-.23.167-.026.233-.052.273-.083v.197zm.396-.579c0-.378-.395-.444-.611-.444-.314 0-.64.067-.686.537h.39c.012-.09.046-.213.248-.213.104 0 .265.009.265.179 0 .086-.078.112-.141.121l-.363.055c-.257.037-.447.19-.447.49 0 .315.237.445.468.445a.62.62 0 0 0 .495-.223.65.65 0 0 0 .038.184h.436v-.06c-.049-.017-.089-.058-.089-.239l-.003-.832zm.718 1.129h-.404v-2.072h.404" fill="#a18051"/><path d="M177.951 164.825c6.486 0 11.762-3.597 11.762-8.019 0-4.421-5.276-8.019-11.762-8.019-6.485 0-11.762 3.597-11.762 8.019.001 4.422 5.277 8.019 11.762 8.019zm-11.472-8.018c0-4.262 5.146-7.73 11.472-7.73s11.473 3.468 11.473 7.73-5.146 7.729-11.473 7.729c-6.326 0-11.472-3.467-11.472-7.729z" fill="#a18051"/><g fill="#a18051"><path d="M185.349 159.505a2.495 2.495 0 0 0 2.492-2.492 2.495 2.495 0 0 0-2.492-2.492h-14.92a2.495 2.495 0 0 0-2.492 2.492 2.495 2.495 0 0 0 2.492 2.492h14.92zm-14.92-.647a1.848 1.848 0 0 1-1.845-1.845c0-1.017.828-1.845 1.845-1.845h14.92c1.017 0 1.845.828 1.845 1.845a1.847 1.847 0 0 1-1.845 1.845h-14.92z"/><path d="M169.79 158.203v-2.346h.733l.979 1.521.003-1.521h.761v2.346h-.761c-.066-.144-.942-1.513-.942-1.513v1.513h-.773zm4.628-1.568c.024.03.065.062.083.077.071-.047.128-.09.205-.116.578-.198.879.135.937.189.264.244.183.907.199 1.417h-.769s.013-.955.002-1.085c-.009-.113-.171-.25-.266-.254-.159-.006-.356.076-.364.255-.017.365.006 1.083.006 1.083h-.753v-1.57l.72.004zm1.788 1.568v-1.538h-.34v-.21h.34v-.223h.753l-.001.223h.36l-.002.211h-.356v1.537m.296-.789c-.014-.514.464-.838.868-.859.191-.009.388-.025.561.056.109.052.235.069.325.154.179.17.294.385.294.66l-1.286-.005c0 .202-.113.663.24.671.135.003.211-.021.261-.137a.61.61 0 0 0 .029-.287c.13.008.676-.008.742-.006-.147.41-.592.588-1.021.588-.177.002-.993-.079-1.013-.835zm.763-.246l.519-.002c0-.089 0-.137-.01-.21-.013-.097-.091-.235-.254-.228-.221.009-.254.135-.254.272l-.001.168zm6.239.581c-.135-.177-.155-.526-.029-.784.11-.226.393-.392.542-.44.202-.066.53-.084.807-.017a.93.93 0 0 1 .617.457c.123.225.102.595-.037.786-.089.122-.288.334-.51.393-.193.051-.59.08-.799.014a1.06 1.06 0 0 1-.591-.409zm.96.27c.213.001.261-.164.265-.269.009-.239-.005-.535-.005-.786.001-.129-.073-.299-.266-.299-.277 0-.268.217-.271.299-.006.138-.006.607-.003.785.002.059.03.269.28.27zm-1.325.183h-.677c-.002 0-.015-.091-.015-.091-.189.148-.95.22-1.244-.399-.026-.055-.103-.457.008-.704.179-.401.593-.489.888-.472.118.007.345.129.345.129l.001-.858h.694c0 .001.008 2.396 0 2.395zm-.707-.394c.022-.069.01-.519.01-.739a.428.428 0 0 0-.06-.176c-.057-.07-.102-.107-.217-.102a.255.255 0 0 0-.239.219c-.018.22-.03.446.005.727a.24.24 0 0 0 .1.173c.165.119.359.029.401-.102zm-9.828.395v-1.586h-.777v1.586m.777-1.853v-.494h-.777v.494m7.711.273c.024.03.065.063.083.077.071-.047.128-.09.205-.116.579-.198.879.135.937.189.264.244.183.908.2 1.417h-.769s.013-.955.002-1.085c-.009-.113-.172-.25-.266-.254-.159-.007-.356.076-.365.256-.017.365-.01 1.095-.01 1.095h-.728v-1.582l.711.003zm5.539-.255h-.051v-.237h.089c.061 0 .097.018.097.072 0 .044-.026.059-.057.062l.061.103h-.06l-.055-.099h-.024v.099zm.045-.14c.022 0 .036-.005.036-.031 0-.024-.026-.026-.045-.026h-.036v.057h.045zm-.008.242a.213.213 0 0 1-.221-.22c0-.139.104-.22.221-.22s.221.081.221.22-.104.22-.221.22zm0-.389c-.087 0-.158.068-.158.169s.07.17.158.169v.001c.085 0 .157-.068.157-.17 0-.101-.072-.169-.157-.169z"/></g><g fill="#c23435"><path d="M125.429 161.591H100.84c-2.22 0-4.026-1.806-4.026-4.026s1.806-4.026 4.026-4.026h24.589a4.03 4.03 0 0 1 4.026 4.026 4.03 4.03 0 0 1-4.026 4.026zm-24.589-7.099a3.077 3.077 0 0 0-3.074 3.074 3.077 3.077 0 0 0 3.074 3.074h24.589a3.077 3.077 0 0 0 3.074-3.074 3.077 3.077 0 0 0-3.074-3.074H100.84z"/><path d="M103.998 159.433v-3.716h-1.118v2.598l-1.648-2.598h-1.201v3.716h1.118v-2.682l1.732 2.682h1.117zm1.816 0v-2.515h-1.118v2.515h1.118zm0-3.046v-.671h-1.118v.671h1.118zm3.912 3.046V157.7c0-.363-.699-.866-1.062-.866h-.335c-.251 0-.531.224-.782.335v-.251h-1.118v2.515h1.118V157.7c0-.168.391-.363.559-.363.168 0 .475.196.475.363v1.732l1.145.001zm9.351.086v-1.732c0-.363-.698-.866-1.062-.866h-.335c-.252 0-.531.224-.783.335v-.251h-1.117v2.515h1.117v-1.732c0-.168.391-.363.559-.363.168 0 .475.196.475.363v1.732l1.146-.001zm-7.535-.086v-2.515h.587v-.335h-.587v-.531h-1.145v.531h-.587v.335h.587v2.515h1.145zm2.151-2.599c-.894 0-1.648.615-1.648 1.369 0 .782.754 1.397 1.648 1.397.782 0 1.425-.447 1.593-1.034h-1.145v.335c0 .279-.195.363-.447.363-.251 0-.419-.084-.419-.363v-.698h2.068c-.001-.754-.727-1.369-1.65-1.369zm0 .252c.252 0 .447.168.447.447v.251h-.866v-.251c0-.28.168-.447.419-.447zm11.009-.252c-.922 0-1.649.615-1.649 1.369 0 .782.726 1.397 1.649 1.397.894 0 1.648-.615 1.648-1.397 0-.754-.754-1.369-1.648-1.369zm0 .252c.251 0 .419.168.419.447v1.369c0 .279-.168.363-.419.363-.279 0-.447-.084-.447-.363v-1.369c0-.28.168-.447.447-.447zm-3.213-1.37v1.369s-.336-.251-.783-.251c-.698 0-1.285.615-1.285 1.285 0 .699.587 1.397 1.285 1.397.447 0 .783-.168.783-.168v.084h1.118v-3.716h-1.118zm-.419 1.537c.251 0 .419.196.419.447v1.034c0 .252-.168.335-.419.335-.279 0-.447-.084-.447-.335V157.7c-.001-.251.167-.447.447-.447zm5.42-.374a.577.577 0 0 1-.576-.575c0-.338.253-.603.576-.603.312 0 .576.276.576.603a.591.591 0 0 1-.576.575zm0-1.09c-.277 0-.486.221-.486.514 0 .268.218.486.486.486a.505.505 0 0 0 .486-.486c0-.274-.227-.514-.486-.514zm.101.76l-.099-.173h-.125v.151h-.089v-.52h.24c.112 0 .17.093.17.184 0 .07-.035.141-.101.171l.081.143-.077.044zm-.224-.262h.151a.074.074 0 0 0 .06-.027.115.115 0 0 0 .021-.068c0-.036-.017-.095-.081-.095h-.151v.19zm-26.755 8.594v-1.621c0-.307-.307-.615-.615-.615H96.65v2.235h.727v-1.508c0-.112.084-.224.196-.224h1.117a.24.24 0 0 1 .224.224v1.508h.698zm19.388 0v-1.621c0-.307-.307-.615-.614-.615h-2.347v2.235h.726v-1.508c0-.112.084-.224.196-.224h1.118c.112 0 .223.112.223.224v1.508c-.001.001.698.001.698.001zm10.612 0v-1.621c0-.307-.307-.615-.615-.615h-2.347v2.235h.726v-1.508c0-.112.084-.224.196-.224h1.117c.112 0 .223.112.223.224v1.508h.7v.001zm-6.335 0v-1.621c0-.307-.307-.615-.615-.615h-3.157v2.235h.727v-1.508c0-.112.084-.224.195-.224h.419c.084 0 .196.112.196.224v1.508h.727v-1.508c0-.112.084-.224.195-.224h.419c.084 0 .196.112.196.224v1.508c-.001.001.698.001.698.001zm-27.13 0h-1.844c-.307 0-.615-.195-.615-.503v-1.76h2.459v.531h-1.648c-.084 0-.196.084-.196.196s.112.196.196.196h1.537v.447h-1.537c-.084 0-.196.112-.196.196 0 .112.112.223.196.223h1.648v.474zm9.082.028h-1.844c-.307 0-.615-.196-.615-.503v-1.76h2.459v.531h-1.649c-.084 0-.195.084-.195.196s.112.196.195.196h1.537v.447h-1.537c-.084 0-.195.112-.195.196 0 .112.112.223.195.223h1.649v.474zm21.021-.028h-1.844c-.307 0-.615-.196-.615-.503v-1.76h2.459v.531h-1.648c-.084 0-.196.084-.196.196s.112.196.196.196h1.536v.447h-1.536c-.084 0-.196.112-.196.196 0 .112.112.223.196.223h1.648v.474zm-26.331-2.235v.503h.726c.196 0 .196 0 .196.224v1.508h.698v-1.508c0-.224 0-.224.224-.224h.698v-.503h-2.542zm8.878 0v.503h.726c.195 0 .195 0 .195.224v1.508h.699v-1.508c0-.224 0-.224.224-.224h.699v-.503h-2.543zm21.225 0v.503h.726c.196 0 .196 0 .196.224v1.508h.698v-1.508c0-.224 0-.224.223-.224h.698v-.503h-2.541zm-24.291 0v2.235h.726v-.391c0-.112.084-.224.196-.224h.922c.112 0 .196.112.196.224v.391h.615v-.615c0-.084-.084-.195-.084-.307 0-.084.196-.279.196-.503v-.196c0-.196-.307-.615-.503-.615l-2.264.001zm.922.502h.922c.112 0 .195.112.195.224v.195a.191.191 0 0 1-.195.196h-.922a.191.191 0 0 1-.196-.196v-.195c0-.112.084-.224.196-.224zm5.504-.502c-.196 0-.503.419-.503.615v1.62h.726v-.615h1.313v.615h.726v-1.62c0-.196-.307-.615-.531-.615h-1.731zm.419.502h.922c.084 0 .196.112.196.224v.391h-1.313v-.391c-.001-.112.083-.224.195-.224zm3.045 1.733v-2.235h-.698v2.235h.698zm6.738 3.061v-1.621c0-.307-.307-.615-.615-.615h-3.157v2.235h.726v-1.509c0-.112.084-.224.195-.224h.419c.084 0 .196.112.196.224v1.508h.726v-1.508c0-.112.084-.224.195-.224h.419c.084 0 .196.112.196.224v1.508l.7.002zm-4.272 0h-1.844c-.307 0-.615-.196-.615-.503v-1.76h2.458v.531h-1.648c-.084 0-.196.084-.196.196s.112.196.196.196h1.536v.447h-1.536c-.084 0-.196.112-.196.196 0 .112.112.223.196.223h1.648l.001.474zm-5.31-2.235v.503h.726c.196 0 .196 0 .196.224v1.508h.698v-1.508c0-.224 0-.224.224-.224h.698v-.503h-2.542zm-8.276.012c-.196 0-.615.307-.615.503v.308c0 .196.419.503.615.503h1.229c.112 0 .224.112.224.196 0 .112-.112.223-.224.223h-1.844v.503h2.067c.196 0 .587-.307.587-.503v-.307c0-.224-.391-.531-.587-.531h-1.229c-.112 0-.223-.084-.223-.196s.112-.196.223-.196h1.816v-.503h-2.039zm5.919 0c-.196 0-.615.307-.615.503v.308c0 .196.419.503.615.503h1.229c.112 0 .224.112.224.196 0 .112-.112.223-.224.223h-1.844v.503h2.068c.196 0 .587-.307.587-.503v-.307c0-.224-.391-.531-.587-.531h-1.229c-.112 0-.223-.084-.223-.196s.112-.196.223-.196h1.816v-.503h-2.04zm-3.656 0v1.006c0 .195.307.503.503.503h.503v.726h.727v-.726H109c.195 0 .503-.307.503-.503v-1.006h-.699v.811c0 .084-.112.196-.224.196h-.894c-.112 0-.224-.112-.224-.196v-.811h-.698z"/></g></svg>