<svg xmlns="http://www.w3.org/2000/svg" viewBox="0 0 859.906 131.676"><path d="M68.137 63.82V0H48.94v44.625L20.633 0H0v63.82h19.195V17.757L48.939 63.82h19.198zm31.191 0V20.634H80.134v43.187l19.194-.001zm0-52.302V0H80.134v11.518h19.194zm67.179 52.302V34.073c0-6.24-11.995-14.877-18.233-14.877h-5.759c-4.317 0-9.116 3.836-13.434 5.756v-4.318h-19.195v43.187h19.193V34.073c0-2.88 6.719-6.24 9.6-6.24 2.877 0 8.156 3.358 8.156 6.24v29.749l19.672-.002zm159.313.001v-29.75c0-6.235-11.995-14.875-18.239-14.875h-5.756c-4.318 0-9.114 3.837-13.436 5.756v-4.318h-19.193v43.187h19.193v-29.75c0-2.877 6.722-6.235 9.594-6.235 2.876 0 8.162 3.358 8.162 6.235v29.75h19.675zm-128.126-.001V20.634h10.081v-5.759h-10.08V5.759h-19.668v9.116h-10.081v5.759h10.081v43.187l19.667-.001zm36.951-44.625c-15.353 0-28.308 10.555-28.308 23.51 0 13.439 12.956 23.992 28.308 23.992 13.434 0 24.473-7.678 27.352-17.751h-19.674v5.756c0 4.798-3.357 6.237-7.679 6.237-4.321 0-7.196-1.439-7.196-6.237V42.706h35.511c.002-12.954-12.48-23.511-28.314-23.511zm0 4.32c4.323 0 7.679 2.879 7.679 7.678v4.32H227.45v-4.321c-.002-4.799 2.874-7.677 7.195-7.677zm189.065-4.32c-15.838 0-28.312 10.555-28.312 23.51 0 13.439 12.474 23.992 28.312 23.992 15.347 0 28.308-10.554 28.308-23.992 0-12.953-12.961-23.51-28.308-23.51zm0 4.32c4.317 0 7.199 2.879 7.199 7.678v23.515c0 4.798-2.882 6.237-7.199 6.237-4.799 0-7.679-1.439-7.679-6.237V31.189c.001-4.796 2.88-7.674 7.679-7.674zM368.528 0v23.513s-5.765-4.318-13.44-4.318c-11.996 0-22.074 10.555-22.074 22.071 0 11.998 10.077 23.994 22.074 23.994 7.678 0 13.44-2.879 13.44-2.879v1.439h19.189V0h-19.189zm-7.203 26.393c4.32 0 7.203 3.358 7.203 7.679v17.754c0 4.321-2.883 5.756-7.203 5.756-4.799 0-7.679-1.436-7.679-5.756V34.073c.002-4.321 2.88-7.68 7.679-7.68zm93.088-6.956c-5.156 0-9.352-4.198-9.352-9.36 0-5.517 4.109-9.838 9.352-9.838 5.077 0 9.365 4.506 9.365 9.838-.001 4.9-4.463 9.36-9.365 9.36zm0-18.712c-4.972 0-8.867 4.107-8.867 9.354 0 4.895 3.977 8.876 8.867 8.876 4.646 0 8.879-4.23 8.879-8.876.001-5.071-4.067-9.354-8.879-9.354zm2.191 13.313l-1.846-3.237h-2.979v3.117h-.484V5.517h3.604c1.576 0 2.4 1.329 2.4 2.642 0 1.198-.684 2.407-1.999 2.612l1.726 3.026-.422.241zm-4.824-3.721h3.12c1.315 0 1.916-1.118 1.916-2.158S456.215 6 454.9 6h-3.12v4.317z" fill="#c12c2d"/><path d="M86.256 131.589v-23.598c0-4.473-4.478-8.949-8.955-8.949H43.128v32.549h10.583v-21.967c0-1.629 1.215-3.258 2.844-3.258h16.273c1.629 0 3.258 1.629 3.258 3.258v21.966h10.17zm283.131 0v-23.598c0-4.473-4.473-8.949-8.944-8.949h-34.178v32.549h10.576v-21.967c0-1.629 1.226-3.258 2.844-3.258h16.273c1.628 0 3.257 1.629 3.257 3.258v21.966h10.172v-.001zm153.705 0v-23.598c0-4.473-4.473-8.949-8.946-8.949h-34.178v32.549h10.578v-21.967c0-1.629 1.224-3.258 2.853-3.258h16.274c1.628 0 3.252 1.629 3.252 3.258v21.966h10.167zm-92.255 0v-23.598c0-4.473-4.474-8.949-8.947-8.949h-45.975v32.549h10.584v-21.967c0-1.629 1.218-3.258 2.844-3.258h6.102c1.226 0 2.845 1.629 2.845 3.258v21.966h10.586v-21.966c0-1.629 1.216-3.258 2.845-3.258h6.1c1.224 0 2.844 1.629 2.844 3.258v21.966h10.172v-.001zm-395.032 0H8.957c-4.478 0-8.957-2.85-8.957-7.323v-25.63h35.804v7.729H11.802c-1.221 0-2.844 1.224-2.844 2.85 0 1.626 1.623 2.847 2.844 2.847h22.375v6.508H11.802c-1.221 0-2.844 1.629-2.844 2.85 0 1.626 1.623 3.253 2.844 3.253h24.003v6.916zm132.242 0h-26.856c-4.473 0-8.946-2.85-8.946-7.323v-25.63h35.802v7.729h-24.006c-1.219 0-2.848 1.224-2.848 2.85 0 1.626 1.629 2.847 2.848 2.847h22.375v6.508h-22.375c-1.219 0-2.848 1.629-2.848 2.85 0 1.626 1.629 3.253 2.848 3.253h24.005v6.915l.001.001zm306.088 0h-26.858c-4.473 0-8.946-2.85-8.946-7.323v-25.63h35.804v7.729H450.13c-1.224 0-2.853 1.224-2.853 2.85 0 1.626 1.629 2.847 2.853 2.847h22.376v6.508H450.13c-1.224 0-2.853 1.629-2.853 2.85 0 1.626 1.629 3.253 2.853 3.253h24.005v6.916zM90.728 99.041v7.32h10.578c2.849 0 2.849 0 2.849 3.258v21.966h10.172v-21.963c0-3.258 0-3.258 3.255-3.258h10.172v-7.32H90.728v-.003zm129.27 0v7.32h10.576c2.844 0 2.844 0 2.844 3.258v21.966h10.172v-21.963c0-3.258 0-3.258 3.258-3.258h10.172v-7.32h-37.021l-.001-.003zm309.06 0v7.32h10.578c2.844 0 2.844 0 2.844 3.258v21.966h10.17v-21.963c0-3.258 0-3.258 3.257-3.258h10.172v-7.32h-37.02l-.001-.003zm-353.709 0v32.549h10.581v-5.694c0-1.629 1.216-3.258 2.844-3.258H202.2c1.629 0 2.844 1.629 2.844 3.258v5.694h8.955v-8.952c0-1.221-1.224-2.844-1.224-4.473 0-1.221 2.844-4.068 2.844-7.323v-2.85c0-2.847-4.473-8.949-7.318-8.949h-32.952v-.002zm13.425 7.32H202.2c1.629 0 2.844 1.629 2.844 3.258v2.844c0 1.629-1.215 2.85-2.844 2.85h-13.426c-1.629 0-2.844-1.221-2.844-2.85v-2.844c0-1.628 1.214-3.258 2.844-3.258zm80.148-7.32c-2.853 0-7.326 6.102-7.326 8.949v23.6h10.576v-8.952h19.127v8.952h10.576v-23.598c0-2.847-4.471-8.949-7.731-8.949h-25.223v-.002zm6.105 7.32h13.42c1.224 0 2.853 1.629 2.853 3.258v5.694h-19.127v-5.694c-.001-1.628 1.223-3.258 2.854-3.258zm44.344 25.228V99.041H309.2v32.549h10.171zm540.535-.087v-23.596c0-4.473-4.482-8.949-8.955-8.949h-45.969v32.545h10.576v-21.967c0-1.629 1.218-3.258 2.844-3.258h6.102c1.224 0 2.853 1.629 2.853 3.258V131.5h10.576v-21.966c0-1.629 1.218-3.258 2.847-3.258h6.102c1.224 0 2.85 1.629 2.85 3.258V131.5h10.173v.002zm-62.207 0h-26.851c-4.473 0-8.946-2.85-8.946-7.323V98.55H797.7v7.726h-24.008c-1.215 0-2.844 1.224-2.844 2.85 0 1.629 1.629 2.847 2.844 2.847h22.375v6.508h-22.375c-1.215 0-2.844 1.629-2.844 2.85 0 1.629 1.629 3.255 2.844 3.255h24.005v6.915l.002.001zm-77.318-32.549v7.323h10.58c2.844 0 2.844 0 2.844 3.258v21.963h10.17v-21.963c0-3.258 0-3.258 3.258-3.258h10.17v-7.321h-37.022v-.002zm-120.5.177c-2.844 0-8.946 4.476-8.946 7.32v4.479c0 2.847 6.102 7.32 8.946 7.32h17.903c1.629 0 3.25 1.629 3.25 2.85 0 1.623-1.618 3.253-3.25 3.253h-26.848v7.323h30.099c2.855 0 8.553-4.473 8.553-7.323v-4.473c0-3.255-5.698-7.729-8.553-7.729H603.14c-1.627 0-3.257-1.221-3.257-2.85 0-1.626 1.629-2.85 3.257-2.85h26.446v-7.32h-29.705zm86.183 0c-2.853 0-8.954 4.476-8.954 7.32v4.479c0 2.847 6.101 7.32 8.954 7.32h17.903c1.62 0 3.25 1.629 3.25 2.85 0 1.623-1.626 3.253-3.25 3.253h-26.858v7.323h30.108c2.853 0 8.541-4.473 8.541-7.323v-4.473c0-3.255-5.688-7.729-8.541-7.729h-17.903c-1.62 0-3.253-1.221-3.253-2.85 0-1.626 1.629-2.85 3.253-2.85h26.443v-7.32h-29.693zm-53.231 0v14.646c0 2.847 4.473 7.323 7.326 7.323h7.317v10.576h10.586v-10.576h7.318c2.853 0 7.326-4.476 7.326-7.323V99.13h-10.17v11.799c0 1.221-1.631 2.847-3.257 2.847h-13.015c-1.629 0-3.258-1.626-3.258-2.847V99.13h-10.173z" fill="#070308"/></svg>