<svg xmlns="http://www.w3.org/2000/svg" viewBox="0 0 288.411 75.415"><g fill="#d0d1d3"><path d="M26.048 6.682V2.895H61.39c1.684 0 2.524 1.262 2.524 3.787H26.048zm0 11.36V7.944h6.311v10.098h-6.311zm15.146 0V7.944h6.311v10.098h-6.311zm16.409 0V7.944h6.311v10.098h-6.311zM67.701 6.682V2.895h23.982v3.787H67.701zm0 7.573V7.944h6.311c0 .843.421 1.262 1.262 1.262h15.147v3.787H74.012c0 .843.421 1.262 1.262 1.262h16.409v3.787H70.226c-1.684 0-2.525-1.262-2.525-3.787zM95.47 6.682c0-2.524.841-3.787 2.524-3.787h23.982v3.787H95.47zm0 7.573V7.944h6.311v6.311h12.622c.841 0 1.262-.212 1.262-.631s-.422-.631-1.262-.631h-6.311V9.206h11.36c2.524 0 3.787 1.262 3.787 3.787v1.262c0 2.524-.841 3.787-2.524 3.787h-22.72c-1.684 0-2.525-1.262-2.525-3.787zM127.026 6.682c0-2.524.841-3.787 2.524-3.787h21.458c1.684 0 2.524 1.262 2.524 3.787h-26.506zm0 11.36V7.944h6.311v10.098h-6.311zm20.196 0v-2.524H134.6v-3.787h12.622V7.944h6.311v10.098h-6.311zM157.32 6.682V2.895h23.982c1.684 0 2.524 1.262 2.524 3.787H157.32zm0 11.36V7.944h6.311v10.098h-6.311zm23.982 0h-16.409v-3.787h12.622V7.944h6.311v6.311c0 2.525-.84 3.787-2.524 3.787zM187.613 6.682c0-2.524.841-3.787 2.524-3.787h21.458c1.684 0 2.524 1.262 2.524 3.787h-26.506zm0 11.36V7.944h6.311v10.098h-6.311zm7.574-2.525V11.73h11.36c.841 0 1.262-.419 1.262-1.262V7.944h6.311v3.787c0 2.524-.841 3.787-2.524 3.787l3.787 2.524h-6.311l-3.787-2.524h-10.098zM219.169 18.042V2.895h6.311v15.147h-6.311zM233.053 6.682l-2.524-3.787h7.573l2.524 3.787h-7.573zm7.574 11.36l-6.311-10.098h7.573l3.787 6.059 3.787-6.059h7.573l-6.311 10.098h-10.098zm9.917-11.36l2.524-3.787h7.573l-2.524 3.787h-7.573zM264.429 6.682V2.895h23.982v3.787h-23.982zm0 7.573V7.944h6.311c0 .843.421 1.262 1.262 1.262h15.147v3.787H270.74c0 .843.421 1.262 1.262 1.262h16.409v3.787h-21.458c-1.683 0-2.524-1.262-2.524-3.787zM26.048 34.667V22.361h64.538c7.436 0 11.155 4.102 11.155 12.307H26.048zm0 36.921V59.281h51.79c2.655 0 3.984-.685 3.984-2.051s-1.329-2.051-3.984-2.051H41.983V42.872h35.058c3.187 0 4.781-1.366 4.781-4.102h19.919v20.511c0 8.205-3.719 12.307-11.155 12.307H26.048zM109.708 34.667V22.361h63.741c7.968 0 11.951 4.102 11.951 12.307h-75.692zm0 20.512c0-8.205 3.984-12.307 11.951-12.307h39.838c2.655 0 3.984-1.366 3.984-4.102H185.4v4.102c0 8.205-3.984 12.307-11.951 12.307h-43.822c-2.655 0-3.984 1.366-3.984 4.102H185.4v12.307h-75.693V55.179zM211.125 34.667L193.368 22.36h23.903l17.7 12.307h-23.846zm53.156 36.921L240.89 55.354l-23.391 16.233h-23.903l35.342-24.555-11.895-8.263h47.692l-11.895 8.263 35.342 24.555h-23.901zm.227-49.227h23.903l-17.757 12.307h-23.846l17.7-12.307z"/></g><g fill="#323b8c"><path d="M7.237 75.415c-1.981 0-3.682-.707-5.104-2.12C.711 71.882 0 70.303 0 68.559v-9.903h3.047v9.141c0 1.405.414 2.518 1.244 3.339.83.821 1.811 1.232 2.946 1.232 1.15 0 2.137-.41 2.959-1.232.82-.821 1.231-1.934 1.231-3.339v-1.524c0-1.202.334-2.137 1.004-2.806a3.3 3.3 0 0 1 2.424-1.003c.932 0 1.734.334 2.412 1.003s1.016 1.604 1.016 2.806v9.141h-3.047v-9.141c0-.508-.127-.762-.381-.762s-.381.254-.381.762v2.285c0 1.743-.707 3.322-2.121 4.736-1.413 1.414-3.118 2.121-5.116 2.121zm0-3.809c-.932 0-1.734-.334-2.412-1.003S3.809 69 3.809 67.798v-9.141h3.047v9.141c0 .508.127.762.381.762s.381-.254.381-.762v-2.285c0-1.743.707-3.322 2.121-4.736 1.412-1.413 3.117-2.12 5.116-2.12 1.981 0 3.682.707 5.104 2.12 1.422 1.413 2.133 2.992 2.133 4.736v9.903h-3.047v-9.141c0-1.405-.414-2.518-1.244-3.339-.83-.821-1.811-1.232-2.946-1.232-1.15 0-2.137.41-2.959 1.232-.82.821-1.231 1.934-1.231 3.339v1.524c0 1.202-.334 2.137-1.004 2.806a3.307 3.307 0 0 1-2.424 1.001zM6.856 57.133C2.285 57.133 0 54.847 0 50.277v-9.141h3.047v9.141c0 2.539 1.27 3.809 3.809 3.809h8.379c2.539 0 3.809-1.27 3.809-3.809v-9.141h3.047v9.141c0 4.571-2.285 6.856-6.856 6.856H6.856zm3.809-3.809H6.856c-2.031 0-3.047-1.016-3.047-3.047v-9.141h3.047v8.379c0 .508.254.762.762.762v-6.856h3.047v9.903zm.762 0v-9.903h3.047v6.856c.508 0 .762-.254.762-.762v-8.379h3.047v9.141c0 2.031-1.016 3.047-3.047 3.047h-3.809zM6.856 39.612C2.285 39.612 0 37.327 0 32.756v-9.141h3.047v9.141c0 2.539 1.27 3.809 3.809 3.809h8.379c2.539 0 3.809-1.27 3.809-3.809v-6.094h-8.379v5.332H7.618v-8.379h14.474v9.141c0 4.571-2.285 6.856-6.856 6.856h-8.38zm0-3.809c-2.031 0-3.047-1.016-3.047-3.047v-9.141h3.047v8.379c0 .508.254.762.762.762h6.856c.508 0 .762-.254.762-.762V30.47h-.762v1.524h-3.047v-4.571h6.856v5.332c0 2.031-1.016 3.047-3.047 3.047h-8.38zM19.044 13.077V4.063L3.555 10.157c-.338.169-.508.508-.508 1.016 0 .423.17.762.508 1.016l18.536 6.856v3.047l-19.552-7.11C.846 14.135 0 12.865 0 11.173c0-1.946.846-3.216 2.539-3.809L22.091 0v13.077h-3.047zm-.762 0h-1.651l5.459 2.158v3.047L4.317 11.68c-.338-.085-.508-.254-.508-.508s.17-.423.508-.508l13.966-5.332v7.745zm-6.602-1.904l3.555 1.397V9.776l-3.555 1.397z"/></g></svg>