<svg xmlns="http://www.w3.org/2000/svg" viewBox="0 0 408.295 109.564"><path d="M88.517 109.192H65.614L59.92 88.765H28.97l-5.942 20.427H0l28.598-94.831c1.114-3.714 2.971-6.809 5.695-9.409 2.6-2.6 5.819-3.962 9.533-3.962 4.085 0 7.676 1.362 10.771 4.209s5.2 6.314 6.438 10.399l27.482 93.594zM53.729 68.957l-9.161-46.301-10.151 46.301h19.312zm93.718-46.054h-20.056v86.289h-22.532V22.903H84.556V2.6h62.891v20.303zm84.679 86.289h-22.903l-5.695-20.427h-30.95l-5.942 20.427h-23.027l28.598-94.831c1.114-3.714 2.971-6.809 5.695-9.409 2.6-2.6 5.819-3.962 9.533-3.962 4.085 0 7.676 1.362 10.771 4.209s5.2 6.314 6.438 10.399l27.482 93.594zm-34.788-40.235l-9.161-46.301-10.152 46.301h19.313zm115.135 40.235h-25.998l-21.913-41.968c-.99-1.981-1.857-3.838-2.476-5.571-.619-1.609-.99-2.971-.99-3.838 0-4.704 3.59-8.542 11.018-11.513 7.304-2.971 11.018-6.809 11.018-11.266 0-2.724-.99-5.447-3.095-8.171-2.105-2.6-4.333-3.962-6.809-3.962h-12.875v86.289h-21.789V17.084c0-3.219 1.486-6.438 4.457-9.533 2.971-3.095 5.942-4.581 8.914-4.581H273.6c8.418 0 15.846 3.095 22.16 9.161 6.314 6.19 9.533 13.247 9.533 21.294 0 6.438-1.857 11.885-5.447 16.342-3.59 4.457-8.666 8.171-14.98 11.142l27.607 48.283zm31.074.372h-22.656V2.971h22.656v106.593zM394.677 91.241v15.351c0 .619-.371 1.238-1.238 1.857s-1.733.867-2.6.867c-1.362 0-3.095-.99-5.323-2.971-2.105-1.981-4.333-3.962-6.438-6.066-2.105-1.981-3.838-3.095-5.076-3.095-.619 0-1.238.248-1.857.867-.619.495-.867 1.238-.867 2.105s.248 1.609.867 2.228c.619.619 1.362.867 2.352.867v5.942c-2.476 0-4.581-.867-6.438-2.724-1.733-1.857-2.724-3.962-2.724-6.438s.867-4.581 2.724-6.314c1.733-1.733 3.838-2.6 6.314-2.6s5.076 1.238 7.428 3.59c2.476 2.352 4.828 4.581 7.057 6.809l.124-10.399h5.695v.124zm-9.657-23.646c2.847 0 5.2.99 7.18 3.095 1.981 2.105 2.847 4.581 2.847 7.428 0 2.724-1.114 4.952-3.219 6.685-2.105 1.733-4.581 2.724-7.304 2.724-1.114 0-3.095-.619-6.066-1.981-2.971-1.362-5.942-2.724-8.79-4.209-2.847-1.486-4.333-2.228-4.333-2.228V72.3l10.647 5.076c0-2.847.867-5.2 2.6-7.057 1.61-1.733 3.838-2.724 6.438-2.724zm.248 6.066c-1.114 0-2.105.371-2.847 1.114-.743.743-1.238 1.733-1.238 2.724 0 .99.371 1.981 1.238 2.724.867.743 1.733 1.114 2.724 1.114 1.238 0 2.105-.371 2.847-.99.619-.743.99-1.609.99-2.847s-.371-2.105-1.114-2.847c-.743-.62-1.61-.992-2.6-.992zm9.532-23.769c0 4.085-1.362 7.799-3.962 10.771-2.6 3.095-6.066 4.581-10.399 4.581-4.209 0-7.923-1.486-10.771-4.457-2.971-2.971-4.457-6.561-4.457-10.523s1.486-7.428 4.457-10.399c2.971-2.971 6.438-4.457 10.275-4.457 3.838 0 7.304 1.362 10.399 4.085 2.973 2.599 4.458 6.066 4.458 10.399zm-14.856-8.419c-2.228 0-4.209.867-5.942 2.6-1.733 1.733-2.6 3.714-2.6 5.942 0 2.6.867 4.704 2.724 6.438 1.857 1.733 3.962 2.6 6.314 2.6 2.476 0 4.581-.867 6.19-2.724 1.609-1.733 2.352-3.962 2.352-6.438 0-2.352-.867-4.333-2.476-6.066-1.733-1.485-3.838-2.352-6.562-2.352zM394.8 17.456c0 4.085-1.362 7.799-3.962 10.771-2.6 3.095-6.066 4.581-10.399 4.581-4.209 0-7.923-1.486-10.771-4.457-2.971-2.971-4.457-6.561-4.457-10.523s1.486-7.428 4.457-10.399c2.971-2.971 6.438-4.457 10.275-4.457 3.838 0 7.304 1.362 10.399 4.085 2.973 2.599 4.458 6.066 4.458 10.399zm-14.856-8.419c-2.228 0-4.209.867-5.942 2.6-1.733 1.733-2.6 3.714-2.6 5.942 0 2.6.867 4.704 2.724 6.438 1.857 1.733 3.962 2.6 6.314 2.6 2.476 0 4.581-.867 6.19-2.724 1.609-1.733 2.352-3.962 2.352-6.438 0-2.352-.867-4.333-2.476-6.066-1.733-1.485-3.838-2.352-6.562-2.352z" fill="#ed1c24"/><path d="M354.07 0c.743 0 1.486.248 2.228.619.743.371 1.238.99 1.733 1.609.371.743.619 1.486.619 2.228s-.248 1.486-.619 2.228c-.371.743-.99 1.238-1.609 1.733-.743.371-1.486.619-2.228.619s-1.486-.248-2.228-.619c-.743-.371-1.238-.99-1.733-1.733-.371-.743-.619-1.486-.619-2.228s.248-1.486.619-2.228c.371-.743.99-1.238 1.733-1.609.618-.371 1.361-.619 2.104-.619zm0 .743c-.619 0-1.238.124-1.857.495s-1.114.743-1.362 1.362c-.371.619-.495 1.238-.495 1.857s.124 1.238.495 1.857.743 1.114 1.362 1.362c.619.371 1.238.495 1.857.495s1.238-.124 1.857-.495 1.114-.743 1.362-1.362c.371-.619.495-1.238.495-1.857s-.124-1.238-.495-1.857-.867-1.114-1.362-1.362c-.495-.248-1.238-.495-1.857-.495zm-1.981 6.314V2.105h1.609c.619 0 .99 0 1.238.124s.495.248.619.495.248.495.248.743c0 .371-.124.619-.371.867-.248.248-.619.371-.99.495.124.124.248.124.371.248.248.248.495.495.743.99l.619.99h-.867l-.495-.867c-.371-.619-.619-.99-.867-1.114-.124-.124-.248-.124-.619-.124h-.495v2.105h-.743zm.867-2.724h.99c.495 0 .743-.124.99-.248.124-.124.248-.371.248-.495s0-.248-.124-.371c-.124-.124-.248-.248-.371-.248s-.371-.124-.743-.124h-.867v1.486h-.123zM399.01 7.428V2.476h-1.857v-.867h4.828v.867h-2.105v4.952h-.866zm3.466 0V1.609h1.486l1.486 4.704 1.486-4.704h1.362v5.819h-.867V2.476l-1.486 4.952h-.867l-1.609-4.952v4.952h-.991z"/></svg>