<svg xmlns="http://www.w3.org/2000/svg" viewBox="0 0 159.425 32.125"><path fill="#070308" d="M27.33 30.047V.719h-4.875l.08 18.859L0 .959l.08 29.408h4.236V11.348L27.33 30.047M30.447 30.526l3.755-6.392h-3.437v-4.475h5.674L46.748.959 63.21 30.527h-5.834l-3.356-6.392H39.397l-3.517 6.392h-5.433m10.948-10.949h10.548L46.669 9.91l-5.274 9.668M104.925 30.526h-4.796V1.039l16.303 18.939L132.894.64v29.886h-5.115l-.079-16.062-11.348 13.665-11.427-13.585v15.982M142.244.319h4.795v30.208h-4.795zM151.593 5.353V1.118h-1.359V.319h3.757v.799h-1.439v4.235z"/><path d="M63.051 16.062C63.051 7.193 70.243 0 79.113 0s16.062 7.193 16.062 16.062c0 8.871-7.192 16.063-16.062 16.063s-16.062-7.192-16.062-16.063M79.113 27.33a11.255 11.255 0 0 0 11.268-11.268c0-6.153-5.034-11.188-11.268-11.188-6.153 0-11.189 5.035-11.189 11.188.001 6.233 5.036 11.268 11.189 11.268" fill="#c85433"/><path fill="#070308" d="M157.027 5.329l-1.439-3.251v3.275h-.959V.319h1.04l1.358 3.118 1.358-3.089h1.04v5.035h-.959V2.107z"/></svg>