<?xml version="1.0" encoding="utf-8"?>
<!-- Generator: Adobe Illustrator 22.0.1, SVG Export Plug-In . SVG Version: 6.00 Build 0)  -->
<svg version="1.1" baseProfile="tiny"
	 id="svg2" xmlns:cc="http://creativecommons.org/ns#" xmlns:dc="http://purl.org/dc/elements/1.1/" xmlns:rdf="http://www.w3.org/1999/02/22-rdf-syntax-ns#" xmlns:svg="http://www.w3.org/2000/svg"
	 xmlns="http://www.w3.org/2000/svg" xmlns:xlink="http://www.w3.org/1999/xlink" x="0px" y="0px" viewBox="0 0 206.8 401"
	 xml:space="preserve">
<path fill="#332D24" d="M182.9,401H24c-11,0-20-9-20-20V20C4,9,13,0,24,0h158.9c11,0,20,9,20,20v361C202.9,392,194,401,182.9,401z"
	/>
<circle fill="#A59983" stroke="#332D24" stroke-width="2" stroke-miterlimit="10" cx="103.5" cy="337.3" r="49.2"/>
<path fill="#A59983" stroke="#332D24" stroke-width="2" stroke-miterlimit="10" d="M155.8,259.3H51.1c-16.6,0-30-13.4-30-30v-155
	c0-16.6,13.4-30,30-30h104.7c16.6,0,30,13.4,30,30v155C185.8,245.8,172.4,259.3,155.8,259.3z"/>
<rect x="43.4" y="66.7" fill="#A59983" stroke="#332D24" stroke-width="2" stroke-miterlimit="10" width="33.2" height="33.2"/>
<rect x="86.9" y="66.7" fill="#A59983" stroke="#332D24" stroke-width="2" stroke-miterlimit="10" width="33.2" height="33.2"/>
<rect x="131.2" y="66.7" fill="#A59983" stroke="#332D24" stroke-width="2" stroke-miterlimit="10" width="33.2" height="33.2"/>
<rect x="43" y="111" fill="#A59983" stroke="#332D24" stroke-width="2" stroke-miterlimit="10" width="33.2" height="33.2"/>
<rect x="86.4" y="111" fill="#A59983" stroke="#332D24" stroke-width="2" stroke-miterlimit="10" width="33.2" height="33.2"/>
<rect x="130.8" y="111" fill="#A59983" stroke="#332D24" stroke-width="2" stroke-miterlimit="10" width="33.2" height="33.2"/>
<rect x="42.6" y="154.9" fill="#A59983" stroke="#332D24" stroke-width="2" stroke-miterlimit="10" width="33.2" height="33.2"/>
<rect x="86" y="154.9" fill="#A59983" stroke="#332D24" stroke-width="2" stroke-miterlimit="10" width="33.2" height="33.2"/>
<rect x="130.3" y="154.9" fill="#A59983" stroke="#332D24" stroke-width="2" stroke-miterlimit="10" width="33.2" height="33.2"/>
<rect x="43" y="199.6" fill="#A59983" stroke="#332D24" stroke-width="2" stroke-miterlimit="10" width="33.2" height="33.2"/>
<rect x="86.4" y="199.6" fill="#A59983" stroke="#332D24" stroke-width="2" stroke-miterlimit="10" width="33.2" height="33.2"/>
<rect x="130.8" y="199.6" fill="#A59983" stroke="#332D24" stroke-width="2" stroke-miterlimit="10" width="33.2" height="33.2"/>
</svg>
