<?xml version="1.0" encoding="utf-8"?>
<!-- Generator: Adobe Illustrator 22.0.0, SVG Export Plug-In . SVG Version: 6.00 Build 0)  -->
<svg version="1.1" baseProfile="tiny" id="Capa_1" xmlns="http://www.w3.org/2000/svg" xmlns:xlink="http://www.w3.org/1999/xlink"
	 x="0px" y="0px" viewBox="0 0 325 731.6" xml:space="preserve">
<g>
	<polygon fill-rule="evenodd" fill="#211915" points="80.6,458.8 78.6,457.4 80.4,455.8 78.3,454.7 79.9,452.8 77.6,452 78.9,449.9 
		76.5,449.4 77.6,447.2 75.2,446.9 76,444.6 73.5,444.7 74.1,442.3 71.6,442.6 71.9,440.2 69.5,440.9 69.4,438.4 67.1,439.4 
		66.7,437 64.6,438.2 63.9,435.8 62,437.3 61,435.1 59.2,436.8 58,434.7 56.4,436.6 54.9,434.7 53.7,436.8 51.9,435.1 50.9,437.3 
		49,435.8 48.3,438.2 46.1,437 45.7,439.4 43.5,438.4 43.4,440.9 41,440.2 41.2,442.6 38.8,442.3 39.3,444.7 36.9,444.6 37.7,446.9 
		35.2,447.2 36.3,449.4 34,449.9 35.3,452 33,452.8 34.6,454.7 32.4,455.8 34.3,457.4 32.3,458.8 34.3,460.2 32.4,461.9 34.6,463 
		33,464.8 35.3,465.7 34,467.7 36.3,468.3 35.2,470.5 37.7,470.7 36.9,473.1 39.3,473 38.8,475.4 41.2,475 41,477.5 43.4,476.8 
		43.5,479.3 45.7,478.3 46.1,480.7 48.3,479.5 49,481.8 50.9,480.3 51.9,482.6 53.7,480.9 54.9,483 56.4,481 58,483 59.2,480.9 
		61,482.6 62,480.3 63.9,481.8 64.6,479.5 66.7,480.7 67.1,478.3 69.4,479.3 69.5,476.8 71.9,477.5 71.6,475 74.1,475.4 73.5,473 
		76,473.1 75.2,470.7 77.6,470.5 76.5,468.3 78.9,467.7 77.6,465.7 79.9,464.8 78.3,463 80.4,461.9 78.6,460.2 80.6,458.8 	"/>
	<path fill="#41403E" d="M310.1,502.8l5.7,0.5c2.9,0.6,4.8,3.5,4.1,6.4l-24.9,116.9c-0.6,2.9-3.4,4.3-6.4,4.1l-7.6,0.1"/>
	<path fill="#41403E" d="M310.1,228.8l5.7-0.5c2.9-0.6,4.8-3.5,4.1-6.4l-24.9-116.9c-0.6-2.9-3.4-4.3-6.4-4.1l-7.6-0.1"/>
	
		<rect x="36.3" y="361.3" transform="matrix(-1.836970e-16 1 -1 -1.836970e-16 413.5131 316.8782)" fill="#050403" width="24" height="7.7"/>
	<path fill="#35383B" d="M317.8,359.1c0-67.1-5.8-129.4-15.7-180.8c-9.9-51.4-23.8-91.9-40.3-115.5c0,0,0,0,0,0l-0.3-0.5h0
		c-25.4-37.3-69.2-62-118.9-62C64.1,0.3,0.4,61.7,0.4,137.4c0,21.1,4.9,41.1,13.8,59l0.1,0.1l0.1,0.1l0,0.1
		c23,45.6,37.5,100.8,37.5,167.4v3.5c0,66.6-14.5,121.8-37.5,167.4c0,0-0.1,0.1-0.1,0.1l0,0.1c0,0,0,0,0,0l-0.1,0
		c-8.8,17.9-13.8,37.9-13.8,59c0,75.7,63.7,137.2,142.2,137.2c49.7,0,93.5-24.6,118.9-62h0l0.3-0.5c0,0,0,0,0,0
		c16.5-23.7,30.4-64.1,40.3-115.5c9.9-51.4,15.7-113.7,15.7-180.8V359.1L317.8,359.1z"/>
	<path id="path9_4_" fill="#333638" d="M12.5,538.5c22.1-48,72.1-81.4,130.1-81.4c78.5,0,142.2,61.4,142.2,137.2l0,0
		c0,25.8-7.4,50-20.2,70.6c-0.9,1.4-1.8,2.8-2.7,4.1c0,0,0,0,0,0l-0.3,0.5h0c-25.4,37.3-69.2,62-118.9,62
		C63.9,731.4,0.2,670,0.2,594.2C0.2,574.4,4.6,555.5,12.5,538.5z"/>
	<path id="path3_4_" fill="#333638" d="M260.3,60.7c12.7,21.2,20,46.2,20,72.7h0c0,78-62.9,141.2-140.5,141.2
		c-57.3,0-106.6-34.4-128.5-83.9c-7.2-16.4-11.1-34.4-11.1-53.3C0.2,61.7,63.9,0.3,142.5,0.3C191.5,0.3,234.8,24.2,260.3,60.7z"/>
	<path fill="#211915" d="M250,159.1c0-46.7-37.6-84.7-83.9-84.7s-83.9,37.9-83.9,84.7c0,46.7,37.5,84.7,83.9,84.7
		C212.4,243.8,250,205.8,250,159.1z"/>
	<path fill="#242C32" d="M247.6,159.1c0,45.4-36.5,82.3-81.5,82.3s-81.5-36.8-81.5-82.3c0-45.4,36.4-82.3,81.5-82.3
		C211.1,76.8,247.6,113.7,247.6,159.1z"/>
	<g>
		<path fill="#211915" d="M151.5,522.4c0-17.1-14.4-31.1-32.2-31.1c-17.7,0-32.2,13.9-32.2,31.1c0,17.1,14.4,31,32.2,31
			C137.1,553.5,151.5,539.6,151.5,522.4z"/>
		<path fill="#9F9288" d="M149.1,522.4c0,15.8-13.3,28.6-29.7,28.6c-16.4,0-29.7-12.8-29.7-28.6c0-15.8,13.3-28.7,29.7-28.7
			C135.8,493.8,149.1,506.6,149.1,522.4z"/>
	</g>
	<g>
		<path fill="#211915" d="M235.1,645.8c0-17.1-14.4-31-32.2-31c-17.7,0-32.2,13.9-32.2,31c0,17.1,14.4,31,32.2,31
			C220.7,676.8,235.1,662.9,235.1,645.8z"/>
		<path fill="#9F9288" d="M232.6,645.8c0,15.8-13.3,28.6-29.7,28.6s-29.7-12.8-29.7-28.6c0-15.8,13.3-28.6,29.7-28.6
			C219.3,617.2,232.6,630,232.6,645.8z"/>
	</g>
	<g>
		<g>
			<path fill="#1F2627" d="M62.9,346c-0.5,0-1-0.1-1.5-0.3s-0.8-0.4-1.2-0.8s-0.6-0.8-0.8-1.3s-0.3-1.1-0.3-1.8v-1H56v-1.9h10.2v3
				c0,0.7-0.1,1.2-0.2,1.8s-0.4,0.9-0.6,1.3s-0.6,0.6-1,0.8S63.5,346,62.9,346z M62.8,343.9c0.3,0,0.5,0,0.7-0.1s0.4-0.2,0.6-0.4
				s0.3-0.4,0.4-0.7s0.1-0.6,0.1-0.9v-1h-3.7v1.1c0,0.3,0,0.6,0.1,0.9s0.2,0.5,0.4,0.6s0.4,0.3,0.6,0.4S62.5,343.9,62.8,343.9z"/>
			<path fill="#1F2627" d="M56,352.7h4.4v-3.5H56v-1.9h10.2v1.9h-4.1v3.5h4.1v1.9H56V352.7z"/>
			<path fill="#1F2627" d="M61.1,363.9c-0.9,0-1.7-0.1-2.4-0.3s-1.2-0.5-1.7-0.9s-0.8-0.8-1-1.3s-0.3-1.1-0.3-1.6
				c0-1.3,0.4-2.4,1.3-3s2.2-1,3.9-1c0.9,0,1.7,0.1,2.4,0.3s1.2,0.5,1.7,0.9s0.8,0.8,1,1.3s0.3,1.1,0.3,1.6c0,1.3-0.4,2.4-1.3,3
				S62.8,363.9,61.1,363.9z M61,361.9c1.2,0,2.1-0.2,2.7-0.5s0.9-0.9,0.9-1.6c0-0.4-0.1-0.7-0.2-0.9s-0.4-0.5-0.7-0.6
				s-0.7-0.3-1.1-0.4s-0.9-0.1-1.5-0.1c-1.2,0-2.1,0.2-2.7,0.5s-0.9,0.9-0.9,1.6c0,0.4,0.1,0.7,0.2,0.9s0.4,0.5,0.7,0.6
				s0.7,0.3,1.1,0.4S60.5,361.9,61,361.9z"/>
			<path fill="#1F2627" d="M56,370l6.1-2.7l1.3-0.6h-4.2H56v-1.8h10.2v2.4l-6.1,2.8l-1.2,0.5h4.5h2.8v1.8H56V370z"/>
			<path fill="#1F2627" d="M56,374.4h10.2v6.1h-1.6v-4.2H62v4h-1.6v-4h-2.8v4.2H56V374.4z"/>
			<path fill="#1F2627" d="M59.1,389.8c-0.6,0-1-0.1-1.5-0.3s-0.8-0.5-1-0.9s-0.5-0.8-0.6-1.3s-0.2-1.1-0.2-1.7c0-0.5,0-1.1,0.1-1.6
				s0.2-1,0.3-1.5h1.9c-0.1,0.2-0.2,0.5-0.2,0.8s-0.1,0.5-0.2,0.8s-0.1,0.5-0.1,0.8s0,0.5,0,0.8c0,0.4,0,0.7,0.1,0.9
				s0.1,0.5,0.3,0.6s0.2,0.3,0.4,0.4s0.3,0.1,0.5,0.1c0.3,0,0.5-0.1,0.6-0.2s0.3-0.3,0.4-0.6s0.2-0.5,0.4-0.8s0.2-0.6,0.3-0.9
				s0.3-0.6,0.4-0.9s0.3-0.6,0.6-0.8s0.5-0.4,0.8-0.6s0.7-0.2,1.1-0.2c0.4,0,0.8,0.1,1.1,0.2s0.7,0.4,0.9,0.7s0.5,0.7,0.6,1.2
				s0.2,1.1,0.2,1.8c0,0.2,0,0.4,0,0.6s0,0.4-0.1,0.7s-0.1,0.4-0.1,0.6s-0.1,0.4-0.1,0.6h-1.8c0.1-0.2,0.1-0.3,0.2-0.5
				s0.1-0.4,0.1-0.6s0.1-0.4,0.1-0.6s0-0.4,0-0.6c0-0.3,0-0.6-0.1-0.9s-0.1-0.4-0.2-0.6s-0.2-0.3-0.4-0.3s-0.3-0.1-0.5-0.1
				c-0.2,0-0.4,0.1-0.6,0.2s-0.3,0.3-0.4,0.6s-0.2,0.5-0.3,0.8s-0.2,0.6-0.3,0.9s-0.3,0.6-0.4,0.9s-0.3,0.6-0.6,0.8
				s-0.5,0.4-0.8,0.6S59.5,389.8,59.1,389.8z"/>
		</g>
		<g>
			<path fill="#1F2627" d="M56,416v-2.5l10.2-3.1v2.2l-6.1,1.7l-2,0.6l2.1,0.6l6,1.7v2L56,416z"/>
			<path fill="#1F2627" d="M61.1,427.6c-0.9,0-1.7-0.1-2.4-0.3s-1.2-0.5-1.7-0.9s-0.8-0.8-1-1.3s-0.3-1.1-0.3-1.6
				c0-1.3,0.4-2.4,1.3-3s2.2-1,3.9-1c0.9,0,1.7,0.1,2.4,0.3s1.2,0.5,1.7,0.9s0.8,0.8,1,1.3s0.3,1.1,0.3,1.6c0,1.3-0.4,2.4-1.3,3
				S62.8,427.6,61.1,427.6z M61,425.6c1.2,0,2.1-0.2,2.7-0.5s0.9-0.9,0.9-1.6c0-0.4-0.1-0.7-0.2-0.9s-0.4-0.5-0.7-0.6
				s-0.7-0.3-1.1-0.4s-0.9-0.1-1.5-0.1c-1.2,0-2.1,0.2-2.7,0.5s-0.9,0.9-0.9,1.6c0,0.4,0.1,0.7,0.2,0.9s0.4,0.5,0.7,0.6
				s0.7,0.3,1.1,0.4S60.5,425.6,61,425.6z"/>
			<path fill="#1F2627" d="M56,429.4h10.2v2h-8.6v4.3H56V429.4z"/>
		</g>
		<polygon fill="#1F2627" points="56,438.1 56,462.1 66.2,462.1 57.3,438.1 		"/>
	</g>
	<g>
		<path fill="#90979A" d="M159.6,494.2l-9.4,12.2l-2.1-3l2-2.5l-2.7-3.9l-3,1l-1.7-2.5l14.7-4.6L159.6,494.2z M150.1,496.1l1.8,2.5
			l3.3-4.2L150.1,496.1z"/>
	</g>
	<g>
		<path fill="#90979A" d="M203.9,544.6l3.9,5.6c0.7,1,1.1,1.8,1.2,2.5c0.1,0.7,0,1.3-0.2,2c-0.2,0.7-0.7,1.2-1.3,1.7
			c-1.3,0.9-2.7,0.8-4.2-0.3c0.4,1,0.5,1.9,0.2,2.7c-0.3,0.8-0.7,1.4-1.4,1.9c-0.9,0.6-1.9,0.8-3,0.6c-1.1-0.2-2.2-1.1-3.3-2.6
			l-3.9-5.6L203.9,544.6z M203.7,548.9l-2.6,1.8l1.5,2.1c0.5,0.8,1,1.2,1.5,1.2c0.5,0,0.8-0.1,1.1-0.3c0.3-0.2,0.5-0.5,0.6-0.8
			c0.1-0.3,0.1-0.6,0-0.8c-0.1-0.2-0.3-0.7-0.7-1.2L203.7,548.9z M199,552.2l-2.9,2l1.5,2.2c0.5,0.7,1,1.2,1.5,1.3
			c0.5,0.1,0.9,0,1.4-0.3c0.4-0.3,0.6-0.7,0.7-1.1c0.1-0.5-0.1-1.1-0.6-1.8L199,552.2z"/>
	</g>
	<g>
		<path fill="#90979A" d="M244.6,623.4l-2.2-2.8c1.7-1.2,2.1-2.5,1.2-3.8c-1-1.5-2.8-1.3-5.5,0.5c-1.5,1.1-2.4,2-2.6,2.7
			c-0.3,0.8-0.1,1.5,0.4,2.2c0.8,1.2,2.1,1.3,3.8,0.5l1.7,2.8c-1.6,0.8-3,1.1-4.4,0.7c-1.4-0.4-2.5-1.2-3.4-2.5
			c-1.1-1.6-1.5-3.3-1.1-5c0.4-1.8,1.6-3.3,3.5-4.7c1.8-1.3,3.6-1.8,5.5-1.7c1.8,0.2,3.3,1.1,4.5,2.7
			C247.8,618.1,247.4,620.8,244.6,623.4z"/>
	</g>
	<g>
		<path fill="#1F2627" d="M145,314.9l-5-2.9l-5.7,3.3v-2.9l3.9-2.1l-3.9-2.1v-2.4l5.7,3.3l5-2.9v2.9l-3.2,1.7l3.2,1.8V314.9z"/>
	</g>
	<g>
		<path fill="#1F2627" d="M138.3,418.3h-4v-2.5H145v4.2c0,0.9-0.1,1.7-0.3,2.2s-0.6,0.9-1.1,1.3s-1.1,0.6-1.9,0.6
			c-0.5,0-1-0.1-1.5-0.3s-0.9-0.5-1.2-0.9s-0.5-0.7-0.6-1.1s-0.1-0.9-0.1-1.7V418.3z M140.3,418.2v1.6c0,0.6,0.1,1.1,0.4,1.3
			s0.6,0.4,1,0.4c0.4,0,0.8-0.1,1-0.4s0.4-0.7,0.4-1.3v-1.6H140.3z"/>
	</g>
	<g>
		<path fill="#211915" d="M176.1,408.2c0-6-5.1-10.9-11.3-10.9c-6.2,0-11.3,4.9-11.3,10.9V432c0,6,5.1,10.9,11.3,10.9
			c6.2,0,11.3-4.9,11.3-10.9V408.2z"/>
		<path fill="#9F9288" d="M173.7,408.2V432c0,4.8-4,8.7-9,8.7c-5,0-9-3.9-9-8.7v-23.8c0-4.8,4-8.7,9-8.7
			C169.7,399.6,173.7,403.4,173.7,408.2z"/>
	</g>
	<g>
		<path fill="#211915" d="M176.1,299.2c0-6-5.1-10.9-11.3-10.9c-6.2,0-11.3,4.9-11.3,10.9V323c0,6,5.1,10.9,11.3,10.9
			c6.2,0,11.3-4.9,11.3-10.9V299.2z"/>
		<path fill="#9F9288" d="M173.7,299.2V323c0,4.8-4,8.7-9,8.7c-5,0-9-3.9-9-8.7v-23.8c0-4.8,4-8.7,9-8.7
			C169.7,290.6,173.7,294.4,173.7,299.2z"/>
	</g>
	<g>
		<path fill-rule="evenodd" fill="#90979A" d="M251.4,325c3.8,0,6.9-0.4,6.9-7.6c0-6-2.3-8-6-7.9l0,0v5.4l0,0c1.4,0.1,2,1.4,2,2.2
			c0,0.6-0.2,2-1.3,2c-3.5,0-0.3-10.4-7.7-10.4c-3.3,0-4.7,3.3-4.6,5c0.1,2.3,0.5,4,2.2,5.7l0,0l-1.7,0.7v5.3l0,0
			C241.6,325,251.4,325,251.4,325L251.4,325L251.4,325L251.4,325z M244.2,316.2c0-1.2,0.9-1.7,1.7-1.7c1.4,0,1.3,2.7,2.3,4.6
			C246,319.3,244.2,318.3,244.2,316.2L244.2,316.2L244.2,316.2L244.2,316.2z"/>
		<path fill-rule="evenodd" fill="#90979A" d="M247.7,431.1c-1.3-0.2-2.8-0.8-2.8-2.3c0-1.9,1.9-2.9,4.4-2.9c1.9,0,4.4,0.7,4.4,2.9
			c0,0.7-0.2,1.2-0.6,1.6c-0.4,0.4-0.9,0.6-1.7,0.6l0,0v5.8l0,0c4.7-0.4,6.6-3.9,6.6-8c0-5-3.1-8.7-8.6-8.7c-5.4,0-8.7,3.8-8.7,8.7
			c0,4.2,2.2,7.6,7.1,8.1l0,0V431.1L247.7,431.1L247.7,431.1z"/>
		<polygon fill-rule="evenodd" fill="#90979A" points="241,413.6 241,419.4 257.5,419.4 257.5,413.6 241,413.6 241,413.6 		"/>
		<polygon fill-rule="evenodd" fill="#90979A" points="260,413.6 260,419.4 264.2,419.4 264.2,413.6 260,413.6 260,413.6 		"/>
		<path fill-rule="evenodd" fill="#90979A" d="M258.2,386.3c0-5.1-3.2-8.6-8.8-8.6c-5.5,0-8.7,3.8-8.7,8.7c0,4.9,3.2,8.7,9,8.7
			C254.7,395,258.2,391.7,258.2,386.3L258.2,386.3L258.2,386.3L258.2,386.3z M244.9,386.3c0-1.5,1.7-2.7,4.8-2.7c1.8,0,4,0.7,4,2.8
			c0.1,1.6-1.8,2.7-4.2,2.7C246.5,389.1,244.9,388,244.9,386.3L244.9,386.3L244.9,386.3L244.9,386.3z"/>
		<path fill-rule="evenodd" fill="#90979A" d="M253.5,367.2c0.8,0,1.2,0.8,1.2,1.9c0,0.5-0.1,1.1-0.4,1.4c-0.1,0.2-0.6,0.5-1.2,0.6
			l0,0v5.5l0,0c4.3-0.1,5.2-4.1,5.2-7.7c0-3.2-1.3-7.2-5.4-7.2c-6.7,0-4.3,9.7-6.8,9.7c-1.1,0-1.6-0.8-1.6-2.2
			c0-0.6,0.4-1.2,0.7-1.6c0.3-0.4,0.7-0.6,1.5-0.6l0,0v-5.4l0,0c-4.5,0.1-6.2,4-6.2,7.4c0,6.4,3,8.3,6.3,8.3
			C253.2,377.3,251.2,367.1,253.5,367.2L253.5,367.2L253.5,367.2L253.5,367.2z"/>
		<path fill-rule="evenodd" fill="#90979A" d="M251.4,360.6c3.8,0,6.9-0.4,6.9-7.6c0-6-2.3-8-6-7.9l0,0v5.4l0,0c1.4,0.1,2,1.4,2,2.2
			c0,0.6-0.2,2-1.3,2c-3.5,0-0.3-10.4-7.7-10.4c-3.3,0-4.7,3.3-4.6,5c0.1,2.3,0.5,4,2.2,5.7l0,0l-1.7,0.7v5.3l0,0
			C241.6,360.6,251.4,360.6,251.4,360.6L251.4,360.6L251.4,360.6L251.4,360.6z M244.2,351.8c0-1.2,0.9-1.7,1.7-1.7
			c1.4,0,1.3,2.7,2.3,4.6C246,354.9,244.2,353.9,244.2,351.8L244.2,351.8L244.2,351.8L244.2,351.8z"/>
		<path fill-rule="evenodd" fill="#90979A" d="M264.8,299.9v-10.3H241v6.7h7.4v3.9l0,0c0,6,3.4,8.9,8.1,8.9
			C261.1,309,264.8,305.9,264.8,299.9L264.8,299.9L264.8,299.9L264.8,299.9z M253.6,299.6v-3.3h5.4v2.4l0,0c0,1.4-0.4,3.6-2.5,3.6
			C254.6,302.3,253.6,301.2,253.6,299.6L253.6,299.6L253.6,299.6L253.6,299.6z"/>
		<path fill-rule="evenodd" fill="#90979A" d="M258.2,406.7c0-2.3-0.4-3.2-2.5-5.4l0,0l1.8,0l0-5.5H241v5.5h8.7l0,0
			c2,0,3.3,1,3.3,2.8c0,1.7-0.9,2.1-2.5,2.1l0,0H241v6h10.1l0,0C255.5,412.3,258.2,410.7,258.2,406.7L258.2,406.7L258.2,406.7
			L258.2,406.7z"/>
		<path fill-rule="evenodd" fill="#90979A" d="M258.2,337.6c0-2.3-0.4-3.2-2.5-5.4l0,0l1.8,0l0-5.5H241v5.8h8.7l0,0
			c2,0,3.5,0.8,3.5,2.6c0,1.7-1.2,2-2.8,2l0,0H241v6h10.1l0,0C255.5,343.2,258.2,341.6,258.2,337.6L258.2,337.6L258.2,337.6
			L258.2,337.6z"/>
	</g>
	<g>
		<g>
			<g>
				<g>
					<g>
						<rect x="77.2" y="349.4" fill="#90979A" width="12" height="29.1"/>
						<path fill="#90979A" d="M97,358.7c0.5,0,0.9,2.3,0.9,5.2c0,2.9-0.4,5.2-0.9,5.2s-0.9-2.3-0.9-5.2
							C96.1,361,96.5,358.7,97,358.7z"/>
						<g>
							<path fill="#35383B" d="M83.7,354.2L83.7,354.2c0,0.9-0.2,1.5-0.5,1.9c-0.3,0.4-0.7,0.6-1.2,0.6c-0.5,0-1-0.2-1.3-0.7
								c-0.3-0.5-0.5-1.1-0.5-1.9c0-0.7,0.1-1.2,0.4-1.6c0.3-0.4,0.6-0.6,0.9-0.6c0.2,0,0.4,0.1,0.6,0.3c0.1,0.2,0.2,0.4,0.2,0.6
								c0,0.2-0.1,0.4-0.2,0.6c-0.1,0.2-0.3,0.2-0.5,0.2c-0.3,0-0.5-0.2-0.7-0.5c0-0.1-0.1-0.1-0.1-0.1c-0.1,0-0.2,0.1-0.2,0.3
								c-0.1,0.2-0.1,0.4-0.1,0.6c0,0.7,0.5,1,1.5,1c1,0,1.5-0.4,1.5-1.3l0-0.7c0-0.1,0.1-0.2,0.2-0.2c0.1,0,0.2,0.1,0.2,0.2l0,0.5
								c0,0.5,0.1,0.9,0.3,1c0.2,0.2,0.6,0.3,1,0.3c0.4,0,0.8-0.1,1-0.2c0.2-0.1,0.3-0.4,0.3-0.7c0-0.2,0-0.3-0.1-0.5
								c-0.1-0.2-0.1-0.2-0.2-0.2c-0.1,0-0.1,0.1-0.2,0.2c-0.2,0.3-0.4,0.4-0.6,0.4c-0.2,0-0.3-0.1-0.5-0.2
								c-0.1-0.1-0.2-0.3-0.2-0.5c0-0.2,0.1-0.4,0.2-0.6c0.1-0.2,0.3-0.3,0.5-0.3c0.3,0,0.6,0.2,0.9,0.6c0.2,0.4,0.4,0.9,0.4,1.4
								c0,0.7-0.1,1.2-0.4,1.6c-0.3,0.4-0.6,0.7-1.1,0.7C84.4,356.6,83.9,355.8,83.7,354.2z"/>
							<path fill="#35383B" d="M86.5,362.1h-5.8v0.6c0,0.9,0.2,1.4,0.7,1.6c0.5,0.2,1.2,0.3,2.4,0.3c0.9,0,1.5-0.1,1.9-0.2
								c0.4-0.1,0.6-0.3,0.7-0.5c0.1-0.2,0.2-0.5,0.2-0.9V362.1z M80.6,360.4h5.8v-0.9h0.3v3.7c0,1.1-0.3,1.9-0.9,2.5
								c-0.6,0.6-1.4,0.9-2.3,0.9c-0.5,0-0.9-0.1-1.3-0.3c-0.4-0.2-0.8-0.5-1.1-0.9c-0.3-0.4-0.6-0.8-0.7-1.2
								c-0.1-0.4-0.1-0.9-0.1-1.5v-3.2h0.3V360.4z"/>
							<path fill="#35383B" d="M83.5,373.6c1,0,1.6,0,2-0.1c0.3,0,0.6-0.1,0.8-0.3c0.2-0.2,0.3-0.5,0.3-0.8c0-0.3-0.1-0.6-0.2-0.8
								c-0.2-0.2-0.4-0.3-0.8-0.4c-0.3,0-1-0.1-2-0.1c-1,0-1.6,0-2,0.1c-0.3,0-0.6,0.2-0.8,0.3c-0.2,0.2-0.3,0.5-0.3,0.8
								c0,0.3,0.1,0.6,0.2,0.8c0.2,0.2,0.4,0.3,0.7,0.4C81.9,373.6,82.5,373.6,83.5,373.6z M83.6,369.2c1,0,1.8,0.3,2.4,1
								c0.6,0.6,0.9,1.4,0.9,2.3c0,0.8-0.3,1.6-0.9,2.2c-0.6,0.7-1.4,1-2.5,1c-1,0-1.8-0.3-2.4-0.9c-0.6-0.6-0.9-1.4-0.9-2.3
								c0-1,0.3-1.8,1-2.4C81.8,369.5,82.6,369.2,83.6,369.2z"/>
						</g>
						<path fill="#90979A" d="M105.6,359.5c2.4,0,4.4,2,4.4,4.4c0,2.4-2,4.4-4.4,4.4c-2.4,0-4.4-2-4.4-4.4
							C101.1,361.5,103.1,359.5,105.6,359.5z"/>
						<path fill="#90979A" d="M117.1,359.8c-0.4-0.6-2.9-0.8-2.9-0.8s-2.5,0.2-2.9,0.8c-0.4,0.6-0.7,4.1-0.7,4.1s0.3,3.5,0.7,4.1
							c0.4,0.6,2.9,0.8,2.9,0.8s2.5-0.2,2.9-0.8c0.4-0.6,0.7-4.1,0.7-4.1S117.5,360.5,117.1,359.8z"/>
						<polygon fill="#90979A" points="128.4,363.9 123.3,369.1 118.1,363.9 123.3,358.7 						"/>
					</g>
				</g>
			</g>
			
				<rect x="92.1" y="334.4" transform="matrix(-1.836970e-16 1 -1 -1.836970e-16 470.5906 257.2401)" fill="none" stroke="#90979A" stroke-miterlimit="10" width="29.1" height="59"/>
		</g>
	</g>
	<g>
		<polygon fill="#373F43" points="102.1,172.9 90.4,172.9 96.2,161.2 		"/>
		<polygon fill="#373F43" points="102.1,161.2 90.4,161.2 96.2,149.5 		"/>
	</g>
	<g>
		<polygon fill="#373F43" points="241.8,147.4 230.1,147.4 236,159.1 		"/>
		<polygon fill="#373F43" points="241.8,159.1 230.1,159.1 236,170.8 		"/>
	</g>
	<g>
		<polygon fill="#373F43" points="170.4,97.7 162.6,97.7 166.5,89.9 		"/>
		<polygon fill="#373F43" points="170.4,89.9 162.6,89.9 166.5,82.1 		"/>
		
			<rect x="165.4" y="77.1" transform="matrix(-1.836970e-16 1 -1 -1.836970e-16 247.4959 -85.4604)" fill="#373F43" width="2.2" height="7.8"/>
	</g>
	<g>
		<polygon fill="#373F43" points="170.4,221.6 162.6,221.6 166.5,229.4 		"/>
		<polygon fill="#373F43" points="170.4,229.4 162.6,229.4 166.5,237.3 		"/>
		
			<rect x="165.4" y="234.4" transform="matrix(4.467721e-11 -1 1 4.467721e-11 -71.8639 404.8202)" fill="#373F43" width="2.2" height="7.8"/>
	</g>
	
		<rect x="181.8" y="302.7" transform="matrix(-1.836970e-16 1 -1 -1.836970e-16 495.7869 120.9293)" fill="#90979A" width="11.3" height="11.3"/>
	
		<rect x="185.4" y="409" transform="matrix(-1.836970e-16 1 -1 -1.836970e-16 602.3807 227.0595)" fill="#90979A" width="4.6" height="11.4"/>
	
		<rect x="185.4" y="415.7" transform="matrix(-1.836970e-16 1 -1 -1.836970e-16 609.0682 233.747)" fill="#90979A" width="4.6" height="11.4"/>
	<polygon fill="#90979A" points="182,387.4 193.3,387.4 187.7,400.7 	"/>
	
		<rect x="187.1" y="399.5" transform="matrix(-0.5319 0.8468 -0.8468 -0.5319 631.6417 462.7141)" fill="#90979A" width="1.8" height="13"/>
	<g>
		
			<ellipse transform="matrix(0.1602 -0.9871 0.9871 0.1602 -17.8067 298.4304)" fill="#211915" cx="166.5" cy="159.7" rx="58" ry="58"/>
		<circle fill="#97897F" cx="166.5" cy="159.7" r="57.3"/>
		<g>
			<path fill="none" stroke="#211915" stroke-width="0.25" stroke-miterlimit="10" d="M222.5,145.9h-37.3c-1.5,0-2.8-0.4-3.7-1.4
				l0,0c-0.9-1-1.2-2.4-1.2-4.1l0,0v-37.3h0"/>
			<path fill="none" stroke="#211915" stroke-width="0.25" stroke-miterlimit="10" d="M152.9,103.6v37.3c0,1.5-0.4,2.8-1.4,3.7l0,0
				c-1,0.9-2.4,1.2-4.1,1.2l0,0h-37.3v0"/>
			<path fill="none" stroke="#211915" stroke-width="0.25" stroke-miterlimit="10" d="M110.4,173.5h37.3c1.5,0,2.8,0.4,3.7,1.4l0,0
				c0.9,1,1.2,2.4,1.2,4.1l0,0v37.3h0"/>
			<path fill="none" stroke="#211915" stroke-width="0.25" stroke-miterlimit="10" d="M180.1,216v-37.3c0-1.5,0.4-2.8,1.4-3.7l0,0
				c1-0.9,2.4-1.2,4.1-1.2l0,0h37.3v0"/>
		</g>
		<path fill="#8E837B" d="M179.3,159.7c0-7.1-5.8-13-12.8-13c-7.1,0-12.8,5.8-12.8,13s5.7,13,12.8,13
			C173.5,172.6,179.3,166.8,179.3,159.7z"/>
	</g>
	<path fill="#41403E" d="M315,451.1l2.8-107.9h5.3c1.1,0,2,0.9,2,2l-3.5,104.5c0,0.8-0.7,1.4-1.6,1.4H315z"/>
	<path fill="none" stroke="#211915" stroke-width="0.5" stroke-miterlimit="10" d="M317.7,359.1c0-67.1-5.8-129.4-15.7-180.8
		c-9.9-51.4-23.8-91.9-40.3-115.5c0,0,0,0,0,0l-0.3-0.5h0c-25.4-37.3-69.2-62-118.9-62C63.9,0.3,0.2,61.7,0.2,137.4
		c0,21.1,4.9,41.1,13.8,59l0.1,0.1l0.1,0.1l0,0.1c23,45.6,37.5,100.8,37.5,167.4v3.5c0,66.6-14.5,121.8-37.5,167.4
		c0,0-0.1,0.1-0.1,0.1l0,0.1c0,0,0,0,0,0l-0.1,0c-8.8,17.9-13.8,37.9-13.8,59c0,75.7,63.7,137.2,142.2,137.2
		c49.7,0,93.5-24.6,118.9-62h0l0.3-0.5c0,0,0,0,0,0c16.5-23.7,30.4-64.1,40.3-115.5c9.9-51.4,15.7-113.7,15.7-180.8V359.1
		L317.7,359.1z"/>
	<path id="path9_1_" fill="none" stroke="#211915" stroke-width="0.5" stroke-miterlimit="10" d="M264.5,664.9
		c12.9-20.6,20.3-44.8,20.3-70.6l0,0c0-75.7-63.7-137.2-142.2-137.2c-58,0-107.8,33.5-129.9,81.5"/>
	<path id="path3_1_" fill="none" stroke="#211915" stroke-width="0.5" stroke-miterlimit="10" d="M11.6,190.7
		c21.9,49.4,71.1,83.9,128.4,83.9c77.6,0,140.5-63.2,140.5-141.2h0c0-26.6-7.3-51.5-20-72.7"/>
	<g>
		<g>
			<ellipse fill="#211915" cx="166.5" cy="579.3" rx="32.2" ry="31"/>
			<ellipse fill="#9F9288" cx="166.5" cy="579.3" rx="29.7" ry="28.6"/>
		</g>
		<circle fill="#8E837B" cx="166.5" cy="579.3" r="7.1"/>
	</g>
</g>
</svg>
